<?xml version="1.0" encoding="utf-8" standalone="no"?>
<!DOCTYPE svg PUBLIC "-//W3C//DTD SVG 1.1//EN"
  "http://www.w3.org/Graphics/SVG/1.1/DTD/svg11.dtd">
<svg xmlns:xlink="http://www.w3.org/1999/xlink" width="842.354326pt" height="557.800071pt" viewBox="0 0 842.354326 557.800071" xmlns="http://www.w3.org/2000/svg" version="1.1">
 <metadata>
  <rdf:RDF xmlns:dc="http://purl.org/dc/elements/1.1/" xmlns:cc="http://creativecommons.org/ns#" xmlns:rdf="http://www.w3.org/1999/02/22-rdf-syntax-ns#">
   <cc:Work>
    <dc:type rdf:resource="http://purl.org/dc/dcmitype/StillImage"/>
    <dc:date>2026-02-26T12:39:30.721105</dc:date>
    <dc:format>image/svg+xml</dc:format>
    <dc:creator>
     <cc:Agent>
      <dc:title>Matplotlib v3.10.8, https://matplotlib.org/</dc:title>
     </cc:Agent>
    </dc:creator>
   </cc:Work>
  </rdf:RDF>
 </metadata>
 <defs>
  <style type="text/css">*{stroke-linejoin: round; stroke-linecap: butt}</style>
 </defs>
 <g id="figure_1">
  <g id="patch_1">
   <path d="M 0 557.800071 
L 842.354326 557.800071 
L 842.354326 0 
L 0 0 
z
" style="fill: #ffffff"/>
  </g>
  <g id="axes_1">
   <g id="patch_2">
    <path d="M 67.040625 500.887571 
L 835.154326 500.887571 
L 835.154326 14.798437 
L 67.040625 14.798437 
z
" style="fill: #ffffff"/>
   </g>
   <g id="matplotlib.axis_1">
    <g id="xtick_1">
     <g id="line2d_1">
      <defs>
       <path id="mf3d308da44" d="M 0 0 
L 0 3.5 
" style="stroke: #000000"/>
      </defs>
      <g>
       <use xlink:href="#mf3d308da44" x="218.33575" y="500.887571" style="stroke: #000000"/>
      </g>
     </g>
     <g id="text_1">
      <!-- 0.0 -->
      <g transform="translate(202.432625 523.084446) scale(0.2 -0.2)">
       <defs>
        <path id="DejaVuSans-30" d="M 2034 4250 
Q 1547 4250 1301 3770 
Q 1056 3291 1056 2328 
Q 1056 1369 1301 889 
Q 1547 409 2034 409 
Q 2525 409 2770 889 
Q 3016 1369 3016 2328 
Q 3016 3291 2770 3770 
Q 2525 4250 2034 4250 
z
M 2034 4750 
Q 2819 4750 3233 4129 
Q 3647 3509 3647 2328 
Q 3647 1150 3233 529 
Q 2819 -91 2034 -91 
Q 1250 -91 836 529 
Q 422 1150 422 2328 
Q 422 3509 836 4129 
Q 1250 4750 2034 4750 
z
" transform="scale(0.015625)"/>
        <path id="DejaVuSans-2e" d="M 684 794 
L 1344 794 
L 1344 0 
L 684 0 
L 684 794 
z
" transform="scale(0.015625)"/>
       </defs>
       <use xlink:href="#DejaVuSans-30"/>
       <use xlink:href="#DejaVuSans-2e" transform="translate(63.623047 0)"/>
       <use xlink:href="#DejaVuSans-30" transform="translate(95.410156 0)"/>
      </g>
     </g>
    </g>
    <g id="xtick_2">
     <g id="line2d_2">
      <g>
       <use xlink:href="#mf3d308da44" x="276.526181" y="500.887571" style="stroke: #000000"/>
      </g>
     </g>
     <g id="text_2">
      <!-- 0.1 -->
      <g transform="translate(260.623056 523.084446) scale(0.2 -0.2)">
       <defs>
        <path id="DejaVuSans-31" d="M 794 531 
L 1825 531 
L 1825 4091 
L 703 3866 
L 703 4441 
L 1819 4666 
L 2450 4666 
L 2450 531 
L 3481 531 
L 3481 0 
L 794 0 
L 794 531 
z
" transform="scale(0.015625)"/>
       </defs>
       <use xlink:href="#DejaVuSans-30"/>
       <use xlink:href="#DejaVuSans-2e" transform="translate(63.623047 0)"/>
       <use xlink:href="#DejaVuSans-31" transform="translate(95.410156 0)"/>
      </g>
     </g>
    </g>
    <g id="xtick_3">
     <g id="line2d_3">
      <g>
       <use xlink:href="#mf3d308da44" x="334.716613" y="500.887571" style="stroke: #000000"/>
      </g>
     </g>
     <g id="text_3">
      <!-- 0.2 -->
      <g transform="translate(318.813488 523.084446) scale(0.2 -0.2)">
       <defs>
        <path id="DejaVuSans-32" d="M 1228 531 
L 3431 531 
L 3431 0 
L 469 0 
L 469 531 
Q 828 903 1448 1529 
Q 2069 2156 2228 2338 
Q 2531 2678 2651 2914 
Q 2772 3150 2772 3378 
Q 2772 3750 2511 3984 
Q 2250 4219 1831 4219 
Q 1534 4219 1204 4116 
Q 875 4013 500 3803 
L 500 4441 
Q 881 4594 1212 4672 
Q 1544 4750 1819 4750 
Q 2544 4750 2975 4387 
Q 3406 4025 3406 3419 
Q 3406 3131 3298 2873 
Q 3191 2616 2906 2266 
Q 2828 2175 2409 1742 
Q 1991 1309 1228 531 
z
" transform="scale(0.015625)"/>
       </defs>
       <use xlink:href="#DejaVuSans-30"/>
       <use xlink:href="#DejaVuSans-2e" transform="translate(63.623047 0)"/>
       <use xlink:href="#DejaVuSans-32" transform="translate(95.410156 0)"/>
      </g>
     </g>
    </g>
    <g id="xtick_4">
     <g id="line2d_4">
      <g>
       <use xlink:href="#mf3d308da44" x="392.907045" y="500.887571" style="stroke: #000000"/>
      </g>
     </g>
     <g id="text_4">
      <!-- 0.3 -->
      <g transform="translate(377.00392 523.084446) scale(0.2 -0.2)">
       <defs>
        <path id="DejaVuSans-33" d="M 2597 2516 
Q 3050 2419 3304 2112 
Q 3559 1806 3559 1356 
Q 3559 666 3084 287 
Q 2609 -91 1734 -91 
Q 1441 -91 1130 -33 
Q 819 25 488 141 
L 488 750 
Q 750 597 1062 519 
Q 1375 441 1716 441 
Q 2309 441 2620 675 
Q 2931 909 2931 1356 
Q 2931 1769 2642 2001 
Q 2353 2234 1838 2234 
L 1294 2234 
L 1294 2753 
L 1863 2753 
Q 2328 2753 2575 2939 
Q 2822 3125 2822 3475 
Q 2822 3834 2567 4026 
Q 2313 4219 1838 4219 
Q 1578 4219 1281 4162 
Q 984 4106 628 3988 
L 628 4550 
Q 988 4650 1302 4700 
Q 1616 4750 1894 4750 
Q 2613 4750 3031 4423 
Q 3450 4097 3450 3541 
Q 3450 3153 3228 2886 
Q 3006 2619 2597 2516 
z
" transform="scale(0.015625)"/>
       </defs>
       <use xlink:href="#DejaVuSans-30"/>
       <use xlink:href="#DejaVuSans-2e" transform="translate(63.623047 0)"/>
       <use xlink:href="#DejaVuSans-33" transform="translate(95.410156 0)"/>
      </g>
     </g>
    </g>
    <g id="xtick_5">
     <g id="line2d_5">
      <g>
       <use xlink:href="#mf3d308da44" x="451.097477" y="500.887571" style="stroke: #000000"/>
      </g>
     </g>
     <g id="text_5">
      <!-- 0.4 -->
      <g transform="translate(435.194352 523.084446) scale(0.2 -0.2)">
       <defs>
        <path id="DejaVuSans-34" d="M 2419 4116 
L 825 1625 
L 2419 1625 
L 2419 4116 
z
M 2253 4666 
L 3047 4666 
L 3047 1625 
L 3713 1625 
L 3713 1100 
L 3047 1100 
L 3047 0 
L 2419 0 
L 2419 1100 
L 313 1100 
L 313 1709 
L 2253 4666 
z
" transform="scale(0.015625)"/>
       </defs>
       <use xlink:href="#DejaVuSans-30"/>
       <use xlink:href="#DejaVuSans-2e" transform="translate(63.623047 0)"/>
       <use xlink:href="#DejaVuSans-34" transform="translate(95.410156 0)"/>
      </g>
     </g>
    </g>
    <g id="xtick_6">
     <g id="line2d_6">
      <g>
       <use xlink:href="#mf3d308da44" x="509.287909" y="500.887571" style="stroke: #000000"/>
      </g>
     </g>
     <g id="text_6">
      <!-- 0.5 -->
      <g transform="translate(493.384784 523.084446) scale(0.2 -0.2)">
       <defs>
        <path id="DejaVuSans-35" d="M 691 4666 
L 3169 4666 
L 3169 4134 
L 1269 4134 
L 1269 2991 
Q 1406 3038 1543 3061 
Q 1681 3084 1819 3084 
Q 2600 3084 3056 2656 
Q 3513 2228 3513 1497 
Q 3513 744 3044 326 
Q 2575 -91 1722 -91 
Q 1428 -91 1123 -41 
Q 819 9 494 109 
L 494 744 
Q 775 591 1075 516 
Q 1375 441 1709 441 
Q 2250 441 2565 725 
Q 2881 1009 2881 1497 
Q 2881 1984 2565 2268 
Q 2250 2553 1709 2553 
Q 1456 2553 1204 2497 
Q 953 2441 691 2322 
L 691 4666 
z
" transform="scale(0.015625)"/>
       </defs>
       <use xlink:href="#DejaVuSans-30"/>
       <use xlink:href="#DejaVuSans-2e" transform="translate(63.623047 0)"/>
       <use xlink:href="#DejaVuSans-35" transform="translate(95.410156 0)"/>
      </g>
     </g>
    </g>
    <g id="xtick_7">
     <g id="line2d_7">
      <g>
       <use xlink:href="#mf3d308da44" x="567.478341" y="500.887571" style="stroke: #000000"/>
      </g>
     </g>
     <g id="text_7">
      <!-- 0.6 -->
      <g transform="translate(551.575216 523.084446) scale(0.2 -0.2)">
       <defs>
        <path id="DejaVuSans-36" d="M 2113 2584 
Q 1688 2584 1439 2293 
Q 1191 2003 1191 1497 
Q 1191 994 1439 701 
Q 1688 409 2113 409 
Q 2538 409 2786 701 
Q 3034 994 3034 1497 
Q 3034 2003 2786 2293 
Q 2538 2584 2113 2584 
z
M 3366 4563 
L 3366 3988 
Q 3128 4100 2886 4159 
Q 2644 4219 2406 4219 
Q 1781 4219 1451 3797 
Q 1122 3375 1075 2522 
Q 1259 2794 1537 2939 
Q 1816 3084 2150 3084 
Q 2853 3084 3261 2657 
Q 3669 2231 3669 1497 
Q 3669 778 3244 343 
Q 2819 -91 2113 -91 
Q 1303 -91 875 529 
Q 447 1150 447 2328 
Q 447 3434 972 4092 
Q 1497 4750 2381 4750 
Q 2619 4750 2861 4703 
Q 3103 4656 3366 4563 
z
" transform="scale(0.015625)"/>
       </defs>
       <use xlink:href="#DejaVuSans-30"/>
       <use xlink:href="#DejaVuSans-2e" transform="translate(63.623047 0)"/>
       <use xlink:href="#DejaVuSans-36" transform="translate(95.410156 0)"/>
      </g>
     </g>
    </g>
    <g id="xtick_8">
     <g id="line2d_8">
      <g>
       <use xlink:href="#mf3d308da44" x="625.668773" y="500.887571" style="stroke: #000000"/>
      </g>
     </g>
     <g id="text_8">
      <!-- 0.7 -->
      <g transform="translate(609.765648 523.084446) scale(0.2 -0.2)">
       <defs>
        <path id="DejaVuSans-37" d="M 525 4666 
L 3525 4666 
L 3525 4397 
L 1831 0 
L 1172 0 
L 2766 4134 
L 525 4134 
L 525 4666 
z
" transform="scale(0.015625)"/>
       </defs>
       <use xlink:href="#DejaVuSans-30"/>
       <use xlink:href="#DejaVuSans-2e" transform="translate(63.623047 0)"/>
       <use xlink:href="#DejaVuSans-37" transform="translate(95.410156 0)"/>
      </g>
     </g>
    </g>
    <g id="xtick_9">
     <g id="line2d_9">
      <g>
       <use xlink:href="#mf3d308da44" x="683.859205" y="500.887571" style="stroke: #000000"/>
      </g>
     </g>
     <g id="text_9">
      <!-- 0.8 -->
      <g transform="translate(667.95608 523.084446) scale(0.2 -0.2)">
       <defs>
        <path id="DejaVuSans-38" d="M 2034 2216 
Q 1584 2216 1326 1975 
Q 1069 1734 1069 1313 
Q 1069 891 1326 650 
Q 1584 409 2034 409 
Q 2484 409 2743 651 
Q 3003 894 3003 1313 
Q 3003 1734 2745 1975 
Q 2488 2216 2034 2216 
z
M 1403 2484 
Q 997 2584 770 2862 
Q 544 3141 544 3541 
Q 544 4100 942 4425 
Q 1341 4750 2034 4750 
Q 2731 4750 3128 4425 
Q 3525 4100 3525 3541 
Q 3525 3141 3298 2862 
Q 3072 2584 2669 2484 
Q 3125 2378 3379 2068 
Q 3634 1759 3634 1313 
Q 3634 634 3220 271 
Q 2806 -91 2034 -91 
Q 1263 -91 848 271 
Q 434 634 434 1313 
Q 434 1759 690 2068 
Q 947 2378 1403 2484 
z
M 1172 3481 
Q 1172 3119 1398 2916 
Q 1625 2713 2034 2713 
Q 2441 2713 2670 2916 
Q 2900 3119 2900 3481 
Q 2900 3844 2670 4047 
Q 2441 4250 2034 4250 
Q 1625 4250 1398 4047 
Q 1172 3844 1172 3481 
z
" transform="scale(0.015625)"/>
       </defs>
       <use xlink:href="#DejaVuSans-30"/>
       <use xlink:href="#DejaVuSans-2e" transform="translate(63.623047 0)"/>
       <use xlink:href="#DejaVuSans-38" transform="translate(95.410156 0)"/>
      </g>
     </g>
    </g>
    <g id="xtick_10">
     <g id="line2d_10">
      <g>
       <use xlink:href="#mf3d308da44" x="742.049637" y="500.887571" style="stroke: #000000"/>
      </g>
     </g>
     <g id="text_10">
      <!-- 0.9 -->
      <g transform="translate(726.146512 523.084446) scale(0.2 -0.2)">
       <defs>
        <path id="DejaVuSans-39" d="M 703 97 
L 703 672 
Q 941 559 1184 500 
Q 1428 441 1663 441 
Q 2288 441 2617 861 
Q 2947 1281 2994 2138 
Q 2813 1869 2534 1725 
Q 2256 1581 1919 1581 
Q 1219 1581 811 2004 
Q 403 2428 403 3163 
Q 403 3881 828 4315 
Q 1253 4750 1959 4750 
Q 2769 4750 3195 4129 
Q 3622 3509 3622 2328 
Q 3622 1225 3098 567 
Q 2575 -91 1691 -91 
Q 1453 -91 1209 -44 
Q 966 3 703 97 
z
M 1959 2075 
Q 2384 2075 2632 2365 
Q 2881 2656 2881 3163 
Q 2881 3666 2632 3958 
Q 2384 4250 1959 4250 
Q 1534 4250 1286 3958 
Q 1038 3666 1038 3163 
Q 1038 2656 1286 2365 
Q 1534 2075 1959 2075 
z
" transform="scale(0.015625)"/>
       </defs>
       <use xlink:href="#DejaVuSans-30"/>
       <use xlink:href="#DejaVuSans-2e" transform="translate(63.623047 0)"/>
       <use xlink:href="#DejaVuSans-39" transform="translate(95.410156 0)"/>
      </g>
     </g>
    </g>
    <g id="xtick_11">
     <g id="line2d_11">
      <g>
       <use xlink:href="#mf3d308da44" x="800.240068" y="500.887571" style="stroke: #000000"/>
      </g>
     </g>
     <g id="text_11">
      <!-- 1.0 -->
      <g transform="translate(784.336943 523.084446) scale(0.2 -0.2)">
       <use xlink:href="#DejaVuSans-31"/>
       <use xlink:href="#DejaVuSans-2e" transform="translate(63.623047 0)"/>
       <use xlink:href="#DejaVuSans-30" transform="translate(95.410156 0)"/>
      </g>
     </g>
    </g>
    <g id="text_12">
     <!-- Time (s) -->
     <g transform="translate(410.439663 546.440696) scale(0.2 -0.2)">
      <defs>
       <path id="DejaVuSans-54" d="M -19 4666 
L 3928 4666 
L 3928 4134 
L 2272 4134 
L 2272 0 
L 1638 0 
L 1638 4134 
L -19 4134 
L -19 4666 
z
" transform="scale(0.015625)"/>
       <path id="DejaVuSans-69" d="M 603 3500 
L 1178 3500 
L 1178 0 
L 603 0 
L 603 3500 
z
M 603 4863 
L 1178 4863 
L 1178 4134 
L 603 4134 
L 603 4863 
z
" transform="scale(0.015625)"/>
       <path id="DejaVuSans-6d" d="M 3328 2828 
Q 3544 3216 3844 3400 
Q 4144 3584 4550 3584 
Q 5097 3584 5394 3201 
Q 5691 2819 5691 2113 
L 5691 0 
L 5113 0 
L 5113 2094 
Q 5113 2597 4934 2840 
Q 4756 3084 4391 3084 
Q 3944 3084 3684 2787 
Q 3425 2491 3425 1978 
L 3425 0 
L 2847 0 
L 2847 2094 
Q 2847 2600 2669 2842 
Q 2491 3084 2119 3084 
Q 1678 3084 1418 2786 
Q 1159 2488 1159 1978 
L 1159 0 
L 581 0 
L 581 3500 
L 1159 3500 
L 1159 2956 
Q 1356 3278 1631 3431 
Q 1906 3584 2284 3584 
Q 2666 3584 2933 3390 
Q 3200 3197 3328 2828 
z
" transform="scale(0.015625)"/>
       <path id="DejaVuSans-65" d="M 3597 1894 
L 3597 1613 
L 953 1613 
Q 991 1019 1311 708 
Q 1631 397 2203 397 
Q 2534 397 2845 478 
Q 3156 559 3463 722 
L 3463 178 
Q 3153 47 2828 -22 
Q 2503 -91 2169 -91 
Q 1331 -91 842 396 
Q 353 884 353 1716 
Q 353 2575 817 3079 
Q 1281 3584 2069 3584 
Q 2775 3584 3186 3129 
Q 3597 2675 3597 1894 
z
M 3022 2063 
Q 3016 2534 2758 2815 
Q 2500 3097 2075 3097 
Q 1594 3097 1305 2825 
Q 1016 2553 972 2059 
L 3022 2063 
z
" transform="scale(0.015625)"/>
       <path id="DejaVuSans-20" transform="scale(0.015625)"/>
       <path id="DejaVuSans-28" d="M 1984 4856 
Q 1566 4138 1362 3434 
Q 1159 2731 1159 2009 
Q 1159 1288 1364 580 
Q 1569 -128 1984 -844 
L 1484 -844 
Q 1016 -109 783 600 
Q 550 1309 550 2009 
Q 550 2706 781 3412 
Q 1013 4119 1484 4856 
L 1984 4856 
z
" transform="scale(0.015625)"/>
       <path id="DejaVuSans-73" d="M 2834 3397 
L 2834 2853 
Q 2591 2978 2328 3040 
Q 2066 3103 1784 3103 
Q 1356 3103 1142 2972 
Q 928 2841 928 2578 
Q 928 2378 1081 2264 
Q 1234 2150 1697 2047 
L 1894 2003 
Q 2506 1872 2764 1633 
Q 3022 1394 3022 966 
Q 3022 478 2636 193 
Q 2250 -91 1575 -91 
Q 1294 -91 989 -36 
Q 684 19 347 128 
L 347 722 
Q 666 556 975 473 
Q 1284 391 1588 391 
Q 1994 391 2212 530 
Q 2431 669 2431 922 
Q 2431 1156 2273 1281 
Q 2116 1406 1581 1522 
L 1381 1569 
Q 847 1681 609 1914 
Q 372 2147 372 2553 
Q 372 3047 722 3315 
Q 1072 3584 1716 3584 
Q 2034 3584 2315 3537 
Q 2597 3491 2834 3397 
z
" transform="scale(0.015625)"/>
       <path id="DejaVuSans-29" d="M 513 4856 
L 1013 4856 
Q 1481 4119 1714 3412 
Q 1947 2706 1947 2009 
Q 1947 1309 1714 600 
Q 1481 -109 1013 -844 
L 513 -844 
Q 928 -128 1133 580 
Q 1338 1288 1338 2009 
Q 1338 2731 1133 3434 
Q 928 4138 513 4856 
z
" transform="scale(0.015625)"/>
      </defs>
      <use xlink:href="#DejaVuSans-54"/>
      <use xlink:href="#DejaVuSans-69" transform="translate(57.958984 0)"/>
      <use xlink:href="#DejaVuSans-6d" transform="translate(85.742188 0)"/>
      <use xlink:href="#DejaVuSans-65" transform="translate(183.154297 0)"/>
      <use xlink:href="#DejaVuSans-20" transform="translate(244.677734 0)"/>
      <use xlink:href="#DejaVuSans-28" transform="translate(276.464844 0)"/>
      <use xlink:href="#DejaVuSans-73" transform="translate(315.478516 0)"/>
      <use xlink:href="#DejaVuSans-29" transform="translate(367.578125 0)"/>
     </g>
    </g>
   </g>
   <g id="matplotlib.axis_2">
    <g id="ytick_1">
     <g id="line2d_12">
      <defs>
       <path id="m2d71653b6e" d="M 0 0 
L -3.5 0 
" style="stroke: #000000"/>
      </defs>
      <g>
       <use xlink:href="#m2d71653b6e" x="67.040625" y="14.798438" style="stroke: #000000"/>
      </g>
     </g>
     <g id="text_13">
      <!-- −3 -->
      <g transform="translate(30.55625 22.396875) scale(0.2 -0.2)">
       <defs>
        <path id="DejaVuSans-2212" d="M 678 2272 
L 4684 2272 
L 4684 1741 
L 678 1741 
L 678 2272 
z
" transform="scale(0.015625)"/>
       </defs>
       <use xlink:href="#DejaVuSans-2212"/>
       <use xlink:href="#DejaVuSans-33" transform="translate(83.789062 0)"/>
      </g>
     </g>
    </g>
    <g id="ytick_2">
     <g id="line2d_13">
      <g>
       <use xlink:href="#m2d71653b6e" x="67.040625" y="95.813293" style="stroke: #000000"/>
      </g>
     </g>
     <g id="text_14">
      <!-- −2 -->
      <g transform="translate(30.55625 103.411731) scale(0.2 -0.2)">
       <use xlink:href="#DejaVuSans-2212"/>
       <use xlink:href="#DejaVuSans-32" transform="translate(83.789062 0)"/>
      </g>
     </g>
    </g>
    <g id="ytick_3">
     <g id="line2d_14">
      <g>
       <use xlink:href="#m2d71653b6e" x="67.040625" y="176.828149" style="stroke: #000000"/>
      </g>
     </g>
     <g id="text_15">
      <!-- −1 -->
      <g transform="translate(30.55625 184.426586) scale(0.2 -0.2)">
       <use xlink:href="#DejaVuSans-2212"/>
       <use xlink:href="#DejaVuSans-31" transform="translate(83.789062 0)"/>
      </g>
     </g>
    </g>
    <g id="ytick_4">
     <g id="line2d_15">
      <g>
       <use xlink:href="#m2d71653b6e" x="67.040625" y="257.843004" style="stroke: #000000"/>
      </g>
     </g>
     <g id="text_16">
      <!-- 0 -->
      <g transform="translate(47.315625 265.441442) scale(0.2 -0.2)">
       <use xlink:href="#DejaVuSans-30"/>
      </g>
     </g>
    </g>
    <g id="ytick_5">
     <g id="line2d_16">
      <g>
       <use xlink:href="#m2d71653b6e" x="67.040625" y="338.85786" style="stroke: #000000"/>
      </g>
     </g>
     <g id="text_17">
      <!-- 1 -->
      <g transform="translate(47.315625 346.456298) scale(0.2 -0.2)">
       <use xlink:href="#DejaVuSans-31"/>
      </g>
     </g>
    </g>
    <g id="ytick_6">
     <g id="line2d_17">
      <g>
       <use xlink:href="#m2d71653b6e" x="67.040625" y="419.872716" style="stroke: #000000"/>
      </g>
     </g>
     <g id="text_18">
      <!-- 2 -->
      <g transform="translate(47.315625 427.471153) scale(0.2 -0.2)">
       <use xlink:href="#DejaVuSans-32"/>
      </g>
     </g>
    </g>
    <g id="ytick_7">
     <g id="line2d_18">
      <g>
       <use xlink:href="#m2d71653b6e" x="67.040625" y="500.887571" style="stroke: #000000"/>
      </g>
     </g>
     <g id="text_19">
      <!-- 3 -->
      <g transform="translate(47.315625 508.486009) scale(0.2 -0.2)">
       <use xlink:href="#DejaVuSans-33"/>
      </g>
     </g>
    </g>
    <g id="text_20">
     <!-- µV -->
     <g transform="translate(22.396875 271.046129) rotate(-90) scale(0.2 -0.2)">
      <defs>
       <path id="DejaVuSans-b5" d="M 544 -1331 
L 544 3500 
L 1119 3500 
L 1119 1325 
Q 1119 872 1334 640 
Q 1550 409 1972 409 
Q 2434 409 2667 671 
Q 2900 934 2900 1459 
L 2900 3500 
L 3475 3500 
L 3475 806 
Q 3475 619 3529 530 
Q 3584 441 3700 441 
Q 3728 441 3778 458 
Q 3828 475 3916 513 
L 3916 50 
Q 3788 -22 3673 -56 
Q 3559 -91 3450 -91 
Q 3234 -91 3106 31 
Q 2978 153 2931 403 
Q 2775 156 2548 32 
Q 2322 -91 2016 -91 
Q 1697 -91 1473 31 
Q 1250 153 1119 397 
L 1119 -1331 
L 544 -1331 
z
" transform="scale(0.015625)"/>
       <path id="DejaVuSans-56" d="M 1831 0 
L 50 4666 
L 709 4666 
L 2188 738 
L 3669 4666 
L 4325 4666 
L 2547 0 
L 1831 0 
z
" transform="scale(0.015625)"/>
      </defs>
      <use xlink:href="#DejaVuSans-b5"/>
      <use xlink:href="#DejaVuSans-56" transform="translate(63.623047 0)"/>
     </g>
    </g>
   </g>
   <g id="line2d_19">
    <path d="M 101.954884 253.434684 
L 104.282501 245.019611 
L 106.610119 235.076975 
L 108.937736 226.263236 
L 111.265353 220.437803 
L 113.592971 218.926741 
L 115.920588 225.153272 
L 118.248205 244.125983 
L 120.575822 276.469525 
L 122.90344 313.452469 
L 125.231057 339.370264 
L 127.558674 341.296233 
L 129.886291 318.452364 
L 132.213909 282.617796 
L 134.541526 248.855157 
L 136.869143 226.581504 
L 139.196761 217.806373 
L 141.524378 219.449443 
L 143.851995 225.265203 
L 146.179612 228.672245 
L 148.50723 227.381013 
L 150.834847 226.523838 
L 153.162464 235.810801 
L 155.490081 262.125004 
L 157.817699 303.409911 
L 160.145316 346.691816 
L 162.472933 373.070234 
L 164.800551 370.801407 
L 167.128168 345.870736 
L 169.455785 317.920212 
L 171.783402 303.610646 
L 174.11102 304.593064 
L 176.438637 310.701923 
L 178.766254 311.33232 
L 181.093871 302.105181 
L 183.421489 284.352369 
L 185.749106 261.558067 
L 190.404341 212.269707 
L 192.731958 193.53687 
L 195.059575 185.693177 
L 197.387192 189.536876 
L 199.71481 199.170268 
L 202.042427 205.44939 
L 204.370044 203.015677 
L 206.697662 194.956048 
L 209.025279 190.115964 
L 211.352896 196.250036 
L 213.680513 216.321929 
L 216.008131 248.232246 
L 218.335748 284.243304 
L 220.663365 313.230113 
L 222.990982 327.484063 
L 225.3186 327.864266 
L 227.646217 322.229841 
L 229.973834 320.20152 
L 232.301452 327.571578 
L 234.629069 343.326142 
L 236.956686 360.570588 
L 239.284303 371.045513 
L 241.611921 370.428209 
L 243.939538 360.480251 
L 248.594772 332.509089 
L 253.250007 307.408656 
L 255.577624 292.907446 
L 257.905242 279.554439 
L 260.232859 273.458968 
L 262.560476 276.291279 
L 264.888093 281.762255 
L 267.215711 281.887224 
L 269.543328 273.25911 
L 271.870945 257.62513 
L 274.198562 239.828686 
L 276.52618 225.9266 
L 278.853797 218.750219 
L 281.181414 214.051208 
L 283.509032 203.848204 
L 285.836649 184.876066 
L 288.164266 162.46861 
L 290.491883 146.907214 
L 292.819501 146.680462 
L 295.147118 162.724181 
L 297.474735 185.966943 
L 299.802353 202.487006 
L 302.12997 204.049809 
L 304.457587 195.79235 
L 306.785204 192.668537 
L 309.112822 206.177506 
L 313.768056 261.017842 
L 316.095673 273.590184 
L 318.423291 266.20114 
L 323.078525 224.922121 
L 325.406143 217.214271 
L 327.73376 224.886997 
L 330.061377 239.117398 
L 332.388994 247.709176 
L 334.716612 245.644122 
L 337.044229 238.22744 
L 339.371846 233.987418 
L 341.699463 236.497682 
L 344.027081 244.218861 
L 346.354698 255.463267 
L 348.682315 271.222301 
L 351.009933 294.819329 
L 355.665167 359.604976 
L 357.992784 377.262104 
L 360.320402 371.793653 
L 364.975636 329.738721 
L 367.303253 318.980347 
L 369.630871 315.086971 
L 371.958488 306.910088 
L 374.286105 285.715275 
L 378.94134 220.959561 
L 381.268957 201.037413 
L 383.596574 198.441806 
L 385.924192 210.247747 
L 388.251809 229.957555 
L 390.579426 251.143197 
L 392.907044 269.189561 
L 395.234661 281.931841 
L 397.562278 289.395391 
L 399.889895 293.720866 
L 402.217513 299.202805 
L 404.54513 309.347546 
L 406.872747 323.585777 
L 409.200364 336.826206 
L 411.527982 343.265458 
L 413.855599 341.798375 
L 416.183216 338.112279 
L 418.510834 340.128736 
L 420.838451 351.747945 
L 425.493685 390.652205 
L 427.821303 402.633271 
L 430.14892 399.826133 
L 432.476537 382.234214 
L 437.131772 331.421408 
L 439.459389 309.366567 
L 444.114624 266.993128 
L 446.442241 246.012716 
L 448.769858 229.608626 
L 451.097475 221.209441 
L 453.425093 221.025576 
L 455.75271 224.003521 
L 458.080327 222.025372 
L 460.407944 210.483939 
L 462.735562 193.287724 
L 465.063179 180.219449 
L 467.390796 179.232834 
L 469.718414 190.719937 
L 474.373648 225.711672 
L 476.701265 237.807306 
L 479.028883 245.290977 
L 481.3565 251.58219 
L 483.684117 259.03649 
L 486.011735 265.618084 
L 488.339352 266.048459 
L 490.666969 257.553866 
L 492.994586 245.180861 
L 495.322204 240.261785 
L 497.649821 250.786607 
L 499.977438 273.796269 
L 502.305055 298.783744 
L 504.632673 318.104369 
L 506.96029 331.279288 
L 509.287907 340.644106 
L 511.615525 345.688039 
L 513.943142 344.150093 
L 516.270759 336.455815 
L 518.598376 325.567583 
L 523.253611 300.969915 
L 525.581228 290.025244 
L 527.908845 286.136972 
L 530.236463 292.64605 
L 532.56408 304.711665 
L 534.891697 311.846444 
L 537.219315 305.594435 
L 539.546932 283.063443 
L 541.874549 247.251118 
L 544.202166 206.956316 
L 546.529784 174.527215 
L 548.857401 160.002615 
L 551.185018 165.818694 
L 553.512635 186.67071 
L 558.16787 244.021792 
L 560.495487 269.292159 
L 562.823105 288.131673 
L 565.150722 300.815684 
L 567.478339 309.079724 
L 569.805956 313.591351 
L 572.133574 313.105608 
L 574.461191 306.719716 
L 576.788808 295.830761 
L 579.116426 284.289418 
L 581.444043 275.740369 
L 583.77166 270.942452 
L 586.099277 267.19351 
L 588.426895 261.171145 
L 590.754512 252.773385 
L 593.082129 245.734129 
L 595.409746 243.6544 
L 597.737364 245.876786 
L 600.064981 247.354789 
L 602.392598 242.573594 
L 604.720216 230.303882 
L 607.047833 216.340279 
L 609.37545 210.550273 
L 611.703067 220.081446 
L 614.030685 244.384985 
L 616.358302 275.822756 
L 618.685919 304.05218 
L 621.013536 322.643569 
L 623.341154 331.793365 
L 625.668771 334.427372 
L 627.996388 332.278792 
L 630.324006 326.995427 
L 632.651623 321.317106 
L 634.97924 317.913098 
L 637.306857 317.834741 
L 639.634475 321.130192 
L 641.962092 328.279077 
L 644.289709 338.170117 
L 646.617327 343.492247 
L 648.944944 333.180117 
L 651.272561 302.973299 
L 653.600178 263.628953 
L 655.927796 234.788654 
L 658.255413 229.422035 
L 660.58303 244.306398 
L 662.910647 265.02713 
L 665.238265 279.150764 
L 667.565882 284.201742 
L 669.893499 283.845169 
L 672.221117 280.643533 
L 674.548734 275.647696 
L 676.876351 272.284105 
L 679.203968 273.915211 
L 681.531586 279.155949 
L 683.859203 282.250201 
L 686.18682 278.692398 
L 688.514437 270.463911 
L 690.842055 265.670523 
L 693.169672 270.829103 
L 695.497289 284.332062 
L 697.824907 298.502258 
L 700.152524 307.191694 
L 702.480141 310.048326 
L 704.807758 310.661236 
L 707.135376 310.596332 
L 709.462993 305.75707 
L 711.79061 289.177157 
L 714.118227 259.048736 
L 716.445845 223.343003 
L 718.773462 195.944457 
L 721.101079 187.97218 
L 723.428697 201.754884 
L 725.756314 230.057834 
L 728.083931 261.1119 
L 730.411548 285.071372 
L 732.739166 297.992828 
L 735.066783 302.00787 
L 737.3944 302.562053 
L 739.722018 303.894959 
L 742.049635 306.361387 
L 744.377252 307.404172 
L 746.704869 304.814721 
L 749.032487 297.618254 
L 751.360104 285.654293 
L 756.015338 254.348377 
L 758.342956 241.103868 
L 760.670573 233.123109 
L 762.99819 230.5965 
L 765.325808 229.820782 
L 767.653425 225.429534 
L 769.981042 214.675037 
L 772.308659 199.347477 
L 774.636277 185.117101 
L 776.963894 178.697404 
L 779.291511 184.5569 
L 781.619128 202.119704 
L 783.946746 225.59556 
L 786.274363 246.603707 
L 788.60198 258.783916 
L 790.929598 261.202763 
L 793.257215 258.479969 
L 795.584832 257.363964 
L 797.912449 262.638117 
L 800.240067 274.659005 
L 800.240067 274.659005 
" clip-path="url(#pdf55d3e33a)" style="fill: none; stroke-dasharray: 5.55,2.4; stroke-dashoffset: 0; stroke: #0070b0; stroke-width: 1.5"/>
   </g>
   <g id="line2d_20">
    <path d="M 101.954884 299.455268 
L 104.282501 270.729749 
L 106.610119 253.30422 
L 108.937736 248.204454 
L 111.265353 247.036149 
L 113.592971 238.729568 
L 115.920588 218.220408 
L 118.248205 189.213653 
L 120.575822 161.731268 
L 122.90344 147.970588 
L 125.231057 156.974354 
L 127.558674 187.649131 
L 129.886291 226.976969 
L 132.213909 259.009456 
L 134.541526 276.712921 
L 136.869143 285.539016 
L 139.196761 296.775328 
L 141.524378 318.238845 
L 143.851995 350.353129 
L 146.179612 384.578541 
L 148.50723 405.146889 
L 150.834847 399.189582 
L 153.162464 367.650386 
L 155.490081 324.504585 
L 157.817699 284.228383 
L 160.145316 251.40904 
L 164.800551 193.627726 
L 167.128168 167.001907 
L 169.455785 147.644531 
L 171.783402 138.164743 
L 174.11102 137.047016 
L 176.438637 142.991962 
L 178.766254 157.327886 
L 181.093871 180.931056 
L 183.421489 209.22866 
L 185.749106 233.033813 
L 188.076723 246.056612 
L 190.404341 249.762103 
L 192.731958 251.190693 
L 195.059575 259.265859 
L 197.387192 280.388172 
L 199.71481 313.20508 
L 202.042427 347.703602 
L 204.370044 370.237187 
L 206.697662 371.056041 
L 209.025279 350.158788 
L 211.352896 317.486871 
L 213.680513 287.024568 
L 216.008131 268.000133 
L 218.335748 259.549683 
L 220.663365 253.826542 
L 222.990982 245.155154 
L 225.3186 234.824367 
L 227.646217 229.146643 
L 229.973834 234.524095 
L 232.301452 250.517191 
L 234.629069 265.638916 
L 236.956686 263.605772 
L 239.284303 237.191495 
L 241.611921 197.17697 
L 243.939538 166.534765 
L 246.267155 163.907843 
L 248.594772 189.540533 
L 250.92239 225.308275 
L 253.250007 249.24799 
L 255.577624 253.808457 
L 257.905242 250.158518 
L 260.232859 251.884924 
L 262.560476 258.379291 
L 264.888093 256.972423 
L 267.215711 238.009834 
L 271.870945 171.910494 
L 274.198562 150.585634 
L 276.52618 147.907945 
L 278.853797 164.641364 
L 281.181414 193.432363 
L 283.509032 219.744887 
L 285.836649 230.114585 
L 288.164266 220.207654 
L 290.491883 195.581323 
L 292.819501 167.078501 
L 295.147118 144.991351 
L 297.474735 133.323058 
L 299.802353 128.29324 
L 302.12997 125.299329 
L 304.457587 127.074511 
L 306.785204 141.830135 
L 309.112822 171.839728 
L 311.440439 207.253216 
L 313.768056 233.853998 
L 316.095673 246.197187 
L 318.423291 250.262853 
L 320.750908 253.395423 
L 323.078525 255.077206 
L 325.406143 249.456965 
L 327.73376 235.50579 
L 330.061377 220.740173 
L 332.388994 214.088641 
L 334.716612 218.634328 
L 337.044229 230.865234 
L 339.371846 244.54926 
L 341.699463 254.663749 
L 344.027081 259.490981 
L 346.354698 260.628462 
L 348.682315 262.023716 
L 351.009933 267.679876 
L 353.33755 278.658886 
L 355.665167 293.34403 
L 357.992784 311.137854 
L 360.320402 332.473107 
L 362.648019 355.257911 
L 364.975636 374.023183 
L 367.303253 381.747901 
L 369.630871 373.300696 
L 371.958488 350.880929 
L 374.286105 325.444978 
L 376.613723 308.540725 
L 378.94134 301.819888 
L 381.268957 296.998484 
L 383.596574 286.769574 
L 385.924192 275.222805 
L 388.251809 273.897662 
L 390.579426 287.556625 
L 392.907044 306.820231 
L 395.234661 316.960257 
L 397.562278 312.29139 
L 399.889895 299.623207 
L 402.217513 288.805445 
L 404.54513 284.969357 
L 406.872747 289.771582 
L 409.200364 303.529539 
L 413.855599 342.465083 
L 416.183216 354.38986 
L 418.510834 358.672567 
L 420.838451 359.175583 
L 423.166068 357.9649 
L 425.493685 352.516519 
L 427.821303 339.714879 
L 430.14892 320.538043 
L 432.476537 299.489088 
L 437.131772 259.096723 
L 439.459389 236.407598 
L 441.787006 215.105557 
L 444.114624 204.971906 
L 446.442241 213.396214 
L 451.097475 259.699229 
L 453.425093 271.867554 
L 455.75271 275.313059 
L 458.080327 282.258976 
L 460.407944 300.637343 
L 465.063179 353.181428 
L 467.390796 369.104587 
L 469.718414 371.702342 
L 472.046031 363.045929 
L 474.373648 349.680103 
L 476.701265 338.924152 
L 479.028883 333.824417 
L 481.3565 331.77432 
L 483.684117 326.712088 
L 486.011735 312.969 
L 488.339352 289.891965 
L 490.666969 262.70127 
L 492.994586 237.852678 
L 495.322204 219.713466 
L 497.649821 212.236589 
L 499.977438 220.058479 
L 502.305055 246.398 
L 504.632673 288.556484 
L 506.96029 336.137576 
L 509.287907 377.921368 
L 511.615525 410.463178 
L 513.943142 437.286804 
L 516.270759 461.148741 
L 518.598376 477.473378 
L 520.925994 476.76691 
L 523.253611 455.617202 
L 525.581228 423.579317 
L 527.908845 394.660872 
L 530.236463 372.984291 
L 532.56408 352.534813 
L 537.219315 307.580927 
L 539.546932 288.386935 
L 541.874549 267.788903 
L 546.529784 217.17468 
L 548.857401 201.631343 
L 551.185018 204.485806 
L 553.512635 229.956292 
L 555.840253 274.295806 
L 558.16787 324.023337 
L 560.495487 362.936018 
L 562.823105 384.102288 
L 565.150722 392.046307 
L 567.478339 393.524212 
L 569.805956 390.576878 
L 572.133574 383.519376 
L 576.788808 365.971813 
L 579.116426 355.561002 
L 581.444043 338.090567 
L 583.77166 311.023195 
L 586.099277 281.379958 
L 588.426895 261.894919 
L 590.754512 259.471883 
L 593.082129 267.9369 
L 595.409746 272.325244 
L 597.737364 260.450126 
L 600.064981 230.332505 
L 602.392598 187.548041 
L 604.720216 140.540933 
L 607.047833 100.552399 
L 609.37545 81.748396 
L 611.703067 96.113779 
L 614.030685 147.197173 
L 616.358302 225.766434 
L 618.685919 310.229643 
L 621.013536 374.685975 
L 623.341154 401.571181 
L 625.668771 389.174514 
L 627.996388 348.775399 
L 630.324006 297.695383 
L 632.651623 252.70169 
L 634.97924 222.445305 
L 637.306857 203.963416 
L 639.634475 186.968355 
L 641.962092 161.919362 
L 646.617327 93.62161 
L 648.944944 77.361311 
L 651.272561 89.622605 
L 653.600178 124.834531 
L 655.927796 163.480412 
L 658.255413 187.188629 
L 660.58303 192.334856 
L 662.910647 189.838602 
L 665.238265 192.231237 
L 667.565882 200.168754 
L 669.893499 203.992438 
L 672.221117 197.019175 
L 674.548734 182.886312 
L 676.876351 171.460237 
L 679.203968 171.069951 
L 681.531586 182.663689 
L 683.859203 198.90016 
L 686.18682 210.290359 
L 688.514437 213.233277 
L 690.842055 210.162975 
L 693.169672 204.521999 
L 695.497289 199.39676 
L 697.824907 200.159107 
L 700.152524 215.230567 
L 702.480141 250.683593 
L 707.135376 353.443051 
L 709.462993 388.70039 
L 711.79061 399.42742 
L 714.118227 385.158653 
L 716.445845 350.632032 
L 718.773462 304.035165 
L 723.428697 204.188373 
L 725.756314 157.950038 
L 728.083931 118.145286 
L 730.411548 89.965535 
L 732.739166 76.626391 
L 735.066783 75.002182 
L 737.3944 78.603743 
L 739.722018 86.637903 
L 742.049635 107.481103 
L 744.377252 148.038988 
L 746.704869 201.207898 
L 749.032487 250.435102 
L 751.360104 283.177869 
L 753.687721 297.091796 
L 756.015338 296.836797 
L 758.342956 286.996738 
L 760.670573 268.694489 
L 762.99819 243.947218 
L 765.325808 220.433401 
L 767.653425 207.932793 
L 769.981042 209.522959 
L 772.308659 218.587361 
L 774.636277 225.474854 
L 776.963894 226.946501 
L 779.291511 226.774025 
L 781.619128 229.401148 
L 783.946746 237.551229 
L 786.274363 254.451187 
L 788.60198 280.69549 
L 790.929598 309.485125 
L 793.257215 331.523569 
L 795.584832 345.46796 
L 797.912449 358.393558 
L 800.240067 374.579546 
L 800.240067 374.579546 
" clip-path="url(#pdf55d3e33a)" style="fill: none; stroke-dasharray: 5.55,2.4; stroke-dashoffset: 0; stroke: #cc78a6; stroke-width: 1.5"/>
   </g>
   <g id="line2d_21">
    <path d="M 67.040625 257.843004 
L 835.154326 257.843004 
" clip-path="url(#pdf55d3e33a)" style="fill: none; stroke-dasharray: 1.85,0.8; stroke-dashoffset: 0; stroke: #000000; stroke-width: 0.5"/>
   </g>
   <g id="line2d_22">
    <path d="M 218.33575 500.887571 
L 218.33575 14.798437 
" clip-path="url(#pdf55d3e33a)" style="fill: none; stroke-dasharray: 1.85,0.8; stroke-dashoffset: 0; stroke: #000000; stroke-width: 0.5"/>
   </g>
   <g id="patch_3">
    <path d="M 67.040625 500.887571 
L 67.040625 14.798438 
" style="fill: none; stroke: #000000; stroke-linejoin: miter; stroke-linecap: square"/>
   </g>
   <g id="patch_4">
    <path d="M 835.154326 500.887571 
L 835.154326 14.798438 
" style="fill: none; stroke: #000000; stroke-linejoin: miter; stroke-linecap: square"/>
   </g>
   <g id="patch_5">
    <path d="M 67.040625 500.887571 
L 835.154326 500.887571 
" style="fill: none; stroke: #000000; stroke-linejoin: miter; stroke-linecap: square"/>
   </g>
   <g id="patch_6">
    <path d="M 67.040625 14.798437 
L 835.154326 14.798437 
" style="fill: none; stroke: #000000; stroke-linejoin: miter; stroke-linecap: square"/>
   </g>
   <g id="legend_1">
    <g id="patch_7">
     <path d="M 530.335576 490.887571 
L 821.154326 490.887571 
Q 825.154326 490.887571 825.154326 486.887571 
L 825.154326 430.175071 
Q 825.154326 426.175071 821.154326 426.175071 
L 530.335576 426.175071 
Q 526.335576 426.175071 526.335576 430.175071 
L 526.335576 486.887571 
Q 526.335576 490.887571 530.335576 490.887571 
z
" style="fill: #ffffff; opacity: 0.8; stroke: #cccccc; stroke-linejoin: miter"/>
    </g>
    <g id="line2d_23">
     <path d="M 534.335576 442.371946 
L 554.335576 442.371946 
L 574.335576 442.371946 
" style="fill: none; stroke-dasharray: 5.55,2.4; stroke-dashoffset: 0; stroke: #0070b0; stroke-width: 1.5"/>
    </g>
    <g id="text_21">
     <!-- High Control [pos-neg] -->
     <g transform="translate(590.335576 449.371946) scale(0.2 -0.2)">
      <defs>
       <path id="DejaVuSans-48" d="M 628 4666 
L 1259 4666 
L 1259 2753 
L 3553 2753 
L 3553 4666 
L 4184 4666 
L 4184 0 
L 3553 0 
L 3553 2222 
L 1259 2222 
L 1259 0 
L 628 0 
L 628 4666 
z
" transform="scale(0.015625)"/>
       <path id="DejaVuSans-67" d="M 2906 1791 
Q 2906 2416 2648 2759 
Q 2391 3103 1925 3103 
Q 1463 3103 1205 2759 
Q 947 2416 947 1791 
Q 947 1169 1205 825 
Q 1463 481 1925 481 
Q 2391 481 2648 825 
Q 2906 1169 2906 1791 
z
M 3481 434 
Q 3481 -459 3084 -895 
Q 2688 -1331 1869 -1331 
Q 1566 -1331 1297 -1286 
Q 1028 -1241 775 -1147 
L 775 -588 
Q 1028 -725 1275 -790 
Q 1522 -856 1778 -856 
Q 2344 -856 2625 -561 
Q 2906 -266 2906 331 
L 2906 616 
Q 2728 306 2450 153 
Q 2172 0 1784 0 
Q 1141 0 747 490 
Q 353 981 353 1791 
Q 353 2603 747 3093 
Q 1141 3584 1784 3584 
Q 2172 3584 2450 3431 
Q 2728 3278 2906 2969 
L 2906 3500 
L 3481 3500 
L 3481 434 
z
" transform="scale(0.015625)"/>
       <path id="DejaVuSans-68" d="M 3513 2113 
L 3513 0 
L 2938 0 
L 2938 2094 
Q 2938 2591 2744 2837 
Q 2550 3084 2163 3084 
Q 1697 3084 1428 2787 
Q 1159 2491 1159 1978 
L 1159 0 
L 581 0 
L 581 4863 
L 1159 4863 
L 1159 2956 
Q 1366 3272 1645 3428 
Q 1925 3584 2291 3584 
Q 2894 3584 3203 3211 
Q 3513 2838 3513 2113 
z
" transform="scale(0.015625)"/>
       <path id="DejaVuSans-43" d="M 4122 4306 
L 4122 3641 
Q 3803 3938 3442 4084 
Q 3081 4231 2675 4231 
Q 1875 4231 1450 3742 
Q 1025 3253 1025 2328 
Q 1025 1406 1450 917 
Q 1875 428 2675 428 
Q 3081 428 3442 575 
Q 3803 722 4122 1019 
L 4122 359 
Q 3791 134 3420 21 
Q 3050 -91 2638 -91 
Q 1578 -91 968 557 
Q 359 1206 359 2328 
Q 359 3453 968 4101 
Q 1578 4750 2638 4750 
Q 3056 4750 3426 4639 
Q 3797 4528 4122 4306 
z
" transform="scale(0.015625)"/>
       <path id="DejaVuSans-6f" d="M 1959 3097 
Q 1497 3097 1228 2736 
Q 959 2375 959 1747 
Q 959 1119 1226 758 
Q 1494 397 1959 397 
Q 2419 397 2687 759 
Q 2956 1122 2956 1747 
Q 2956 2369 2687 2733 
Q 2419 3097 1959 3097 
z
M 1959 3584 
Q 2709 3584 3137 3096 
Q 3566 2609 3566 1747 
Q 3566 888 3137 398 
Q 2709 -91 1959 -91 
Q 1206 -91 779 398 
Q 353 888 353 1747 
Q 353 2609 779 3096 
Q 1206 3584 1959 3584 
z
" transform="scale(0.015625)"/>
       <path id="DejaVuSans-6e" d="M 3513 2113 
L 3513 0 
L 2938 0 
L 2938 2094 
Q 2938 2591 2744 2837 
Q 2550 3084 2163 3084 
Q 1697 3084 1428 2787 
Q 1159 2491 1159 1978 
L 1159 0 
L 581 0 
L 581 3500 
L 1159 3500 
L 1159 2956 
Q 1366 3272 1645 3428 
Q 1925 3584 2291 3584 
Q 2894 3584 3203 3211 
Q 3513 2838 3513 2113 
z
" transform="scale(0.015625)"/>
       <path id="DejaVuSans-74" d="M 1172 4494 
L 1172 3500 
L 2356 3500 
L 2356 3053 
L 1172 3053 
L 1172 1153 
Q 1172 725 1289 603 
Q 1406 481 1766 481 
L 2356 481 
L 2356 0 
L 1766 0 
Q 1100 0 847 248 
Q 594 497 594 1153 
L 594 3053 
L 172 3053 
L 172 3500 
L 594 3500 
L 594 4494 
L 1172 4494 
z
" transform="scale(0.015625)"/>
       <path id="DejaVuSans-72" d="M 2631 2963 
Q 2534 3019 2420 3045 
Q 2306 3072 2169 3072 
Q 1681 3072 1420 2755 
Q 1159 2438 1159 1844 
L 1159 0 
L 581 0 
L 581 3500 
L 1159 3500 
L 1159 2956 
Q 1341 3275 1631 3429 
Q 1922 3584 2338 3584 
Q 2397 3584 2469 3576 
Q 2541 3569 2628 3553 
L 2631 2963 
z
" transform="scale(0.015625)"/>
       <path id="DejaVuSans-6c" d="M 603 4863 
L 1178 4863 
L 1178 0 
L 603 0 
L 603 4863 
z
" transform="scale(0.015625)"/>
       <path id="DejaVuSans-5b" d="M 550 4863 
L 1875 4863 
L 1875 4416 
L 1125 4416 
L 1125 -397 
L 1875 -397 
L 1875 -844 
L 550 -844 
L 550 4863 
z
" transform="scale(0.015625)"/>
       <path id="DejaVuSans-70" d="M 1159 525 
L 1159 -1331 
L 581 -1331 
L 581 3500 
L 1159 3500 
L 1159 2969 
Q 1341 3281 1617 3432 
Q 1894 3584 2278 3584 
Q 2916 3584 3314 3078 
Q 3713 2572 3713 1747 
Q 3713 922 3314 415 
Q 2916 -91 2278 -91 
Q 1894 -91 1617 61 
Q 1341 213 1159 525 
z
M 3116 1747 
Q 3116 2381 2855 2742 
Q 2594 3103 2138 3103 
Q 1681 3103 1420 2742 
Q 1159 2381 1159 1747 
Q 1159 1113 1420 752 
Q 1681 391 2138 391 
Q 2594 391 2855 752 
Q 3116 1113 3116 1747 
z
" transform="scale(0.015625)"/>
       <path id="DejaVuSans-2d" d="M 313 2009 
L 1997 2009 
L 1997 1497 
L 313 1497 
L 313 2009 
z
" transform="scale(0.015625)"/>
       <path id="DejaVuSans-5d" d="M 1947 4863 
L 1947 -844 
L 622 -844 
L 622 -397 
L 1369 -397 
L 1369 4416 
L 622 4416 
L 622 4863 
L 1947 4863 
z
" transform="scale(0.015625)"/>
      </defs>
      <use xlink:href="#DejaVuSans-48"/>
      <use xlink:href="#DejaVuSans-69" transform="translate(75.195312 0)"/>
      <use xlink:href="#DejaVuSans-67" transform="translate(102.978516 0)"/>
      <use xlink:href="#DejaVuSans-68" transform="translate(166.455078 0)"/>
      <use xlink:href="#DejaVuSans-20" transform="translate(229.833984 0)"/>
      <use xlink:href="#DejaVuSans-43" transform="translate(261.621094 0)"/>
      <use xlink:href="#DejaVuSans-6f" transform="translate(331.445312 0)"/>
      <use xlink:href="#DejaVuSans-6e" transform="translate(392.626953 0)"/>
      <use xlink:href="#DejaVuSans-74" transform="translate(456.005859 0)"/>
      <use xlink:href="#DejaVuSans-72" transform="translate(495.214844 0)"/>
      <use xlink:href="#DejaVuSans-6f" transform="translate(534.078125 0)"/>
      <use xlink:href="#DejaVuSans-6c" transform="translate(595.259766 0)"/>
      <use xlink:href="#DejaVuSans-20" transform="translate(623.042969 0)"/>
      <use xlink:href="#DejaVuSans-5b" transform="translate(654.830078 0)"/>
      <use xlink:href="#DejaVuSans-70" transform="translate(693.84375 0)"/>
      <use xlink:href="#DejaVuSans-6f" transform="translate(757.320312 0)"/>
      <use xlink:href="#DejaVuSans-73" transform="translate(818.501953 0)"/>
      <use xlink:href="#DejaVuSans-2d" transform="translate(870.601562 0)"/>
      <use xlink:href="#DejaVuSans-6e" transform="translate(906.685547 0)"/>
      <use xlink:href="#DejaVuSans-65" transform="translate(970.064453 0)"/>
      <use xlink:href="#DejaVuSans-67" transform="translate(1031.587891 0)"/>
      <use xlink:href="#DejaVuSans-5d" transform="translate(1095.064453 0)"/>
     </g>
    </g>
    <g id="line2d_24">
     <path d="M 534.335576 471.728196 
L 554.335576 471.728196 
L 574.335576 471.728196 
" style="fill: none; stroke-dasharray: 5.55,2.4; stroke-dashoffset: 0; stroke: #cc78a6; stroke-width: 1.5"/>
    </g>
    <g id="text_22">
     <!-- Low Control [pos-neg] -->
     <g transform="translate(590.335576 478.728196) scale(0.2 -0.2)">
      <defs>
       <path id="DejaVuSans-4c" d="M 628 4666 
L 1259 4666 
L 1259 531 
L 3531 531 
L 3531 0 
L 628 0 
L 628 4666 
z
" transform="scale(0.015625)"/>
       <path id="DejaVuSans-77" d="M 269 3500 
L 844 3500 
L 1563 769 
L 2278 3500 
L 2956 3500 
L 3675 769 
L 4391 3500 
L 4966 3500 
L 4050 0 
L 3372 0 
L 2619 2869 
L 1863 0 
L 1184 0 
L 269 3500 
z
" transform="scale(0.015625)"/>
      </defs>
      <use xlink:href="#DejaVuSans-4c"/>
      <use xlink:href="#DejaVuSans-6f" transform="translate(53.962891 0)"/>
      <use xlink:href="#DejaVuSans-77" transform="translate(115.144531 0)"/>
      <use xlink:href="#DejaVuSans-20" transform="translate(196.931641 0)"/>
      <use xlink:href="#DejaVuSans-43" transform="translate(228.71875 0)"/>
      <use xlink:href="#DejaVuSans-6f" transform="translate(298.542969 0)"/>
      <use xlink:href="#DejaVuSans-6e" transform="translate(359.724609 0)"/>
      <use xlink:href="#DejaVuSans-74" transform="translate(423.103516 0)"/>
      <use xlink:href="#DejaVuSans-72" transform="translate(462.3125 0)"/>
      <use xlink:href="#DejaVuSans-6f" transform="translate(501.175781 0)"/>
      <use xlink:href="#DejaVuSans-6c" transform="translate(562.357422 0)"/>
      <use xlink:href="#DejaVuSans-20" transform="translate(590.140625 0)"/>
      <use xlink:href="#DejaVuSans-5b" transform="translate(621.927734 0)"/>
      <use xlink:href="#DejaVuSans-70" transform="translate(660.941406 0)"/>
      <use xlink:href="#DejaVuSans-6f" transform="translate(724.417969 0)"/>
      <use xlink:href="#DejaVuSans-73" transform="translate(785.599609 0)"/>
      <use xlink:href="#DejaVuSans-2d" transform="translate(837.699219 0)"/>
      <use xlink:href="#DejaVuSans-6e" transform="translate(873.783203 0)"/>
      <use xlink:href="#DejaVuSans-65" transform="translate(937.162109 0)"/>
      <use xlink:href="#DejaVuSans-67" transform="translate(998.685547 0)"/>
      <use xlink:href="#DejaVuSans-5d" transform="translate(1062.162109 0)"/>
     </g>
    </g>
   </g>
  </g>
 </g>
 <defs>
  <clipPath id="pdf55d3e33a">
   <rect x="67.040625" y="14.798437" width="768.113701" height="486.089134"/>
  </clipPath>
 </defs>
</svg>
