<?xml version="1.0" encoding="utf-8" standalone="no"?>
<!DOCTYPE svg PUBLIC "-//W3C//DTD SVG 1.1//EN"
  "http://www.w3.org/Graphics/SVG/1.1/DTD/svg11.dtd">
<svg xmlns:xlink="http://www.w3.org/1999/xlink" width="842.354326pt" height="557.800071pt" viewBox="0 0 842.354326 557.800071" xmlns="http://www.w3.org/2000/svg" version="1.1">
 <metadata>
  <rdf:RDF xmlns:dc="http://purl.org/dc/elements/1.1/" xmlns:cc="http://creativecommons.org/ns#" xmlns:rdf="http://www.w3.org/1999/02/22-rdf-syntax-ns#">
   <cc:Work>
    <dc:type rdf:resource="http://purl.org/dc/dcmitype/StillImage"/>
    <dc:date>2026-02-26T14:41:41.195953</dc:date>
    <dc:format>image/svg+xml</dc:format>
    <dc:creator>
     <cc:Agent>
      <dc:title>Matplotlib v3.10.8, https://matplotlib.org/</dc:title>
     </cc:Agent>
    </dc:creator>
   </cc:Work>
  </rdf:RDF>
 </metadata>
 <defs>
  <style type="text/css">*{stroke-linejoin: round; stroke-linecap: butt}</style>
 </defs>
 <g id="figure_1">
  <g id="patch_1">
   <path d="M 0 557.800071 
L 842.354326 557.800071 
L 842.354326 0 
L 0 0 
z
" style="fill: #ffffff"/>
  </g>
  <g id="axes_1">
   <g id="patch_2">
    <path d="M 67.040625 500.887571 
L 835.154326 500.887571 
L 835.154326 14.798437 
L 67.040625 14.798437 
z
" style="fill: #ffffff"/>
   </g>
   <g id="matplotlib.axis_1">
    <g id="xtick_1">
     <g id="line2d_1">
      <defs>
       <path id="m5c84536597" d="M 0 0 
L 0 3.5 
" style="stroke: #000000"/>
      </defs>
      <g>
       <use xlink:href="#m5c84536597" x="218.33575" y="500.887571" style="stroke: #000000"/>
      </g>
     </g>
     <g id="text_1">
      <!-- 0.0 -->
      <g transform="translate(202.432625 523.084446) scale(0.2 -0.2)">
       <defs>
        <path id="DejaVuSans-30" d="M 2034 4250 
Q 1547 4250 1301 3770 
Q 1056 3291 1056 2328 
Q 1056 1369 1301 889 
Q 1547 409 2034 409 
Q 2525 409 2770 889 
Q 3016 1369 3016 2328 
Q 3016 3291 2770 3770 
Q 2525 4250 2034 4250 
z
M 2034 4750 
Q 2819 4750 3233 4129 
Q 3647 3509 3647 2328 
Q 3647 1150 3233 529 
Q 2819 -91 2034 -91 
Q 1250 -91 836 529 
Q 422 1150 422 2328 
Q 422 3509 836 4129 
Q 1250 4750 2034 4750 
z
" transform="scale(0.015625)"/>
        <path id="DejaVuSans-2e" d="M 684 794 
L 1344 794 
L 1344 0 
L 684 0 
L 684 794 
z
" transform="scale(0.015625)"/>
       </defs>
       <use xlink:href="#DejaVuSans-30"/>
       <use xlink:href="#DejaVuSans-2e" transform="translate(63.623047 0)"/>
       <use xlink:href="#DejaVuSans-30" transform="translate(95.410156 0)"/>
      </g>
     </g>
    </g>
    <g id="xtick_2">
     <g id="line2d_2">
      <g>
       <use xlink:href="#m5c84536597" x="276.526181" y="500.887571" style="stroke: #000000"/>
      </g>
     </g>
     <g id="text_2">
      <!-- 0.1 -->
      <g transform="translate(260.623056 523.084446) scale(0.2 -0.2)">
       <defs>
        <path id="DejaVuSans-31" d="M 794 531 
L 1825 531 
L 1825 4091 
L 703 3866 
L 703 4441 
L 1819 4666 
L 2450 4666 
L 2450 531 
L 3481 531 
L 3481 0 
L 794 0 
L 794 531 
z
" transform="scale(0.015625)"/>
       </defs>
       <use xlink:href="#DejaVuSans-30"/>
       <use xlink:href="#DejaVuSans-2e" transform="translate(63.623047 0)"/>
       <use xlink:href="#DejaVuSans-31" transform="translate(95.410156 0)"/>
      </g>
     </g>
    </g>
    <g id="xtick_3">
     <g id="line2d_3">
      <g>
       <use xlink:href="#m5c84536597" x="334.716613" y="500.887571" style="stroke: #000000"/>
      </g>
     </g>
     <g id="text_3">
      <!-- 0.2 -->
      <g transform="translate(318.813488 523.084446) scale(0.2 -0.2)">
       <defs>
        <path id="DejaVuSans-32" d="M 1228 531 
L 3431 531 
L 3431 0 
L 469 0 
L 469 531 
Q 828 903 1448 1529 
Q 2069 2156 2228 2338 
Q 2531 2678 2651 2914 
Q 2772 3150 2772 3378 
Q 2772 3750 2511 3984 
Q 2250 4219 1831 4219 
Q 1534 4219 1204 4116 
Q 875 4013 500 3803 
L 500 4441 
Q 881 4594 1212 4672 
Q 1544 4750 1819 4750 
Q 2544 4750 2975 4387 
Q 3406 4025 3406 3419 
Q 3406 3131 3298 2873 
Q 3191 2616 2906 2266 
Q 2828 2175 2409 1742 
Q 1991 1309 1228 531 
z
" transform="scale(0.015625)"/>
       </defs>
       <use xlink:href="#DejaVuSans-30"/>
       <use xlink:href="#DejaVuSans-2e" transform="translate(63.623047 0)"/>
       <use xlink:href="#DejaVuSans-32" transform="translate(95.410156 0)"/>
      </g>
     </g>
    </g>
    <g id="xtick_4">
     <g id="line2d_4">
      <g>
       <use xlink:href="#m5c84536597" x="392.907045" y="500.887571" style="stroke: #000000"/>
      </g>
     </g>
     <g id="text_4">
      <!-- 0.3 -->
      <g transform="translate(377.00392 523.084446) scale(0.2 -0.2)">
       <defs>
        <path id="DejaVuSans-33" d="M 2597 2516 
Q 3050 2419 3304 2112 
Q 3559 1806 3559 1356 
Q 3559 666 3084 287 
Q 2609 -91 1734 -91 
Q 1441 -91 1130 -33 
Q 819 25 488 141 
L 488 750 
Q 750 597 1062 519 
Q 1375 441 1716 441 
Q 2309 441 2620 675 
Q 2931 909 2931 1356 
Q 2931 1769 2642 2001 
Q 2353 2234 1838 2234 
L 1294 2234 
L 1294 2753 
L 1863 2753 
Q 2328 2753 2575 2939 
Q 2822 3125 2822 3475 
Q 2822 3834 2567 4026 
Q 2313 4219 1838 4219 
Q 1578 4219 1281 4162 
Q 984 4106 628 3988 
L 628 4550 
Q 988 4650 1302 4700 
Q 1616 4750 1894 4750 
Q 2613 4750 3031 4423 
Q 3450 4097 3450 3541 
Q 3450 3153 3228 2886 
Q 3006 2619 2597 2516 
z
" transform="scale(0.015625)"/>
       </defs>
       <use xlink:href="#DejaVuSans-30"/>
       <use xlink:href="#DejaVuSans-2e" transform="translate(63.623047 0)"/>
       <use xlink:href="#DejaVuSans-33" transform="translate(95.410156 0)"/>
      </g>
     </g>
    </g>
    <g id="xtick_5">
     <g id="line2d_5">
      <g>
       <use xlink:href="#m5c84536597" x="451.097477" y="500.887571" style="stroke: #000000"/>
      </g>
     </g>
     <g id="text_5">
      <!-- 0.4 -->
      <g transform="translate(435.194352 523.084446) scale(0.2 -0.2)">
       <defs>
        <path id="DejaVuSans-34" d="M 2419 4116 
L 825 1625 
L 2419 1625 
L 2419 4116 
z
M 2253 4666 
L 3047 4666 
L 3047 1625 
L 3713 1625 
L 3713 1100 
L 3047 1100 
L 3047 0 
L 2419 0 
L 2419 1100 
L 313 1100 
L 313 1709 
L 2253 4666 
z
" transform="scale(0.015625)"/>
       </defs>
       <use xlink:href="#DejaVuSans-30"/>
       <use xlink:href="#DejaVuSans-2e" transform="translate(63.623047 0)"/>
       <use xlink:href="#DejaVuSans-34" transform="translate(95.410156 0)"/>
      </g>
     </g>
    </g>
    <g id="xtick_6">
     <g id="line2d_6">
      <g>
       <use xlink:href="#m5c84536597" x="509.287909" y="500.887571" style="stroke: #000000"/>
      </g>
     </g>
     <g id="text_6">
      <!-- 0.5 -->
      <g transform="translate(493.384784 523.084446) scale(0.2 -0.2)">
       <defs>
        <path id="DejaVuSans-35" d="M 691 4666 
L 3169 4666 
L 3169 4134 
L 1269 4134 
L 1269 2991 
Q 1406 3038 1543 3061 
Q 1681 3084 1819 3084 
Q 2600 3084 3056 2656 
Q 3513 2228 3513 1497 
Q 3513 744 3044 326 
Q 2575 -91 1722 -91 
Q 1428 -91 1123 -41 
Q 819 9 494 109 
L 494 744 
Q 775 591 1075 516 
Q 1375 441 1709 441 
Q 2250 441 2565 725 
Q 2881 1009 2881 1497 
Q 2881 1984 2565 2268 
Q 2250 2553 1709 2553 
Q 1456 2553 1204 2497 
Q 953 2441 691 2322 
L 691 4666 
z
" transform="scale(0.015625)"/>
       </defs>
       <use xlink:href="#DejaVuSans-30"/>
       <use xlink:href="#DejaVuSans-2e" transform="translate(63.623047 0)"/>
       <use xlink:href="#DejaVuSans-35" transform="translate(95.410156 0)"/>
      </g>
     </g>
    </g>
    <g id="xtick_7">
     <g id="line2d_7">
      <g>
       <use xlink:href="#m5c84536597" x="567.478341" y="500.887571" style="stroke: #000000"/>
      </g>
     </g>
     <g id="text_7">
      <!-- 0.6 -->
      <g transform="translate(551.575216 523.084446) scale(0.2 -0.2)">
       <defs>
        <path id="DejaVuSans-36" d="M 2113 2584 
Q 1688 2584 1439 2293 
Q 1191 2003 1191 1497 
Q 1191 994 1439 701 
Q 1688 409 2113 409 
Q 2538 409 2786 701 
Q 3034 994 3034 1497 
Q 3034 2003 2786 2293 
Q 2538 2584 2113 2584 
z
M 3366 4563 
L 3366 3988 
Q 3128 4100 2886 4159 
Q 2644 4219 2406 4219 
Q 1781 4219 1451 3797 
Q 1122 3375 1075 2522 
Q 1259 2794 1537 2939 
Q 1816 3084 2150 3084 
Q 2853 3084 3261 2657 
Q 3669 2231 3669 1497 
Q 3669 778 3244 343 
Q 2819 -91 2113 -91 
Q 1303 -91 875 529 
Q 447 1150 447 2328 
Q 447 3434 972 4092 
Q 1497 4750 2381 4750 
Q 2619 4750 2861 4703 
Q 3103 4656 3366 4563 
z
" transform="scale(0.015625)"/>
       </defs>
       <use xlink:href="#DejaVuSans-30"/>
       <use xlink:href="#DejaVuSans-2e" transform="translate(63.623047 0)"/>
       <use xlink:href="#DejaVuSans-36" transform="translate(95.410156 0)"/>
      </g>
     </g>
    </g>
    <g id="xtick_8">
     <g id="line2d_8">
      <g>
       <use xlink:href="#m5c84536597" x="625.668773" y="500.887571" style="stroke: #000000"/>
      </g>
     </g>
     <g id="text_8">
      <!-- 0.7 -->
      <g transform="translate(609.765648 523.084446) scale(0.2 -0.2)">
       <defs>
        <path id="DejaVuSans-37" d="M 525 4666 
L 3525 4666 
L 3525 4397 
L 1831 0 
L 1172 0 
L 2766 4134 
L 525 4134 
L 525 4666 
z
" transform="scale(0.015625)"/>
       </defs>
       <use xlink:href="#DejaVuSans-30"/>
       <use xlink:href="#DejaVuSans-2e" transform="translate(63.623047 0)"/>
       <use xlink:href="#DejaVuSans-37" transform="translate(95.410156 0)"/>
      </g>
     </g>
    </g>
    <g id="xtick_9">
     <g id="line2d_9">
      <g>
       <use xlink:href="#m5c84536597" x="683.859205" y="500.887571" style="stroke: #000000"/>
      </g>
     </g>
     <g id="text_9">
      <!-- 0.8 -->
      <g transform="translate(667.95608 523.084446) scale(0.2 -0.2)">
       <defs>
        <path id="DejaVuSans-38" d="M 2034 2216 
Q 1584 2216 1326 1975 
Q 1069 1734 1069 1313 
Q 1069 891 1326 650 
Q 1584 409 2034 409 
Q 2484 409 2743 651 
Q 3003 894 3003 1313 
Q 3003 1734 2745 1975 
Q 2488 2216 2034 2216 
z
M 1403 2484 
Q 997 2584 770 2862 
Q 544 3141 544 3541 
Q 544 4100 942 4425 
Q 1341 4750 2034 4750 
Q 2731 4750 3128 4425 
Q 3525 4100 3525 3541 
Q 3525 3141 3298 2862 
Q 3072 2584 2669 2484 
Q 3125 2378 3379 2068 
Q 3634 1759 3634 1313 
Q 3634 634 3220 271 
Q 2806 -91 2034 -91 
Q 1263 -91 848 271 
Q 434 634 434 1313 
Q 434 1759 690 2068 
Q 947 2378 1403 2484 
z
M 1172 3481 
Q 1172 3119 1398 2916 
Q 1625 2713 2034 2713 
Q 2441 2713 2670 2916 
Q 2900 3119 2900 3481 
Q 2900 3844 2670 4047 
Q 2441 4250 2034 4250 
Q 1625 4250 1398 4047 
Q 1172 3844 1172 3481 
z
" transform="scale(0.015625)"/>
       </defs>
       <use xlink:href="#DejaVuSans-30"/>
       <use xlink:href="#DejaVuSans-2e" transform="translate(63.623047 0)"/>
       <use xlink:href="#DejaVuSans-38" transform="translate(95.410156 0)"/>
      </g>
     </g>
    </g>
    <g id="xtick_10">
     <g id="line2d_10">
      <g>
       <use xlink:href="#m5c84536597" x="742.049637" y="500.887571" style="stroke: #000000"/>
      </g>
     </g>
     <g id="text_10">
      <!-- 0.9 -->
      <g transform="translate(726.146512 523.084446) scale(0.2 -0.2)">
       <defs>
        <path id="DejaVuSans-39" d="M 703 97 
L 703 672 
Q 941 559 1184 500 
Q 1428 441 1663 441 
Q 2288 441 2617 861 
Q 2947 1281 2994 2138 
Q 2813 1869 2534 1725 
Q 2256 1581 1919 1581 
Q 1219 1581 811 2004 
Q 403 2428 403 3163 
Q 403 3881 828 4315 
Q 1253 4750 1959 4750 
Q 2769 4750 3195 4129 
Q 3622 3509 3622 2328 
Q 3622 1225 3098 567 
Q 2575 -91 1691 -91 
Q 1453 -91 1209 -44 
Q 966 3 703 97 
z
M 1959 2075 
Q 2384 2075 2632 2365 
Q 2881 2656 2881 3163 
Q 2881 3666 2632 3958 
Q 2384 4250 1959 4250 
Q 1534 4250 1286 3958 
Q 1038 3666 1038 3163 
Q 1038 2656 1286 2365 
Q 1534 2075 1959 2075 
z
" transform="scale(0.015625)"/>
       </defs>
       <use xlink:href="#DejaVuSans-30"/>
       <use xlink:href="#DejaVuSans-2e" transform="translate(63.623047 0)"/>
       <use xlink:href="#DejaVuSans-39" transform="translate(95.410156 0)"/>
      </g>
     </g>
    </g>
    <g id="xtick_11">
     <g id="line2d_11">
      <g>
       <use xlink:href="#m5c84536597" x="800.240068" y="500.887571" style="stroke: #000000"/>
      </g>
     </g>
     <g id="text_11">
      <!-- 1.0 -->
      <g transform="translate(784.336943 523.084446) scale(0.2 -0.2)">
       <use xlink:href="#DejaVuSans-31"/>
       <use xlink:href="#DejaVuSans-2e" transform="translate(63.623047 0)"/>
       <use xlink:href="#DejaVuSans-30" transform="translate(95.410156 0)"/>
      </g>
     </g>
    </g>
    <g id="text_12">
     <!-- Time (s) -->
     <g transform="translate(410.439663 546.440696) scale(0.2 -0.2)">
      <defs>
       <path id="DejaVuSans-54" d="M -19 4666 
L 3928 4666 
L 3928 4134 
L 2272 4134 
L 2272 0 
L 1638 0 
L 1638 4134 
L -19 4134 
L -19 4666 
z
" transform="scale(0.015625)"/>
       <path id="DejaVuSans-69" d="M 603 3500 
L 1178 3500 
L 1178 0 
L 603 0 
L 603 3500 
z
M 603 4863 
L 1178 4863 
L 1178 4134 
L 603 4134 
L 603 4863 
z
" transform="scale(0.015625)"/>
       <path id="DejaVuSans-6d" d="M 3328 2828 
Q 3544 3216 3844 3400 
Q 4144 3584 4550 3584 
Q 5097 3584 5394 3201 
Q 5691 2819 5691 2113 
L 5691 0 
L 5113 0 
L 5113 2094 
Q 5113 2597 4934 2840 
Q 4756 3084 4391 3084 
Q 3944 3084 3684 2787 
Q 3425 2491 3425 1978 
L 3425 0 
L 2847 0 
L 2847 2094 
Q 2847 2600 2669 2842 
Q 2491 3084 2119 3084 
Q 1678 3084 1418 2786 
Q 1159 2488 1159 1978 
L 1159 0 
L 581 0 
L 581 3500 
L 1159 3500 
L 1159 2956 
Q 1356 3278 1631 3431 
Q 1906 3584 2284 3584 
Q 2666 3584 2933 3390 
Q 3200 3197 3328 2828 
z
" transform="scale(0.015625)"/>
       <path id="DejaVuSans-65" d="M 3597 1894 
L 3597 1613 
L 953 1613 
Q 991 1019 1311 708 
Q 1631 397 2203 397 
Q 2534 397 2845 478 
Q 3156 559 3463 722 
L 3463 178 
Q 3153 47 2828 -22 
Q 2503 -91 2169 -91 
Q 1331 -91 842 396 
Q 353 884 353 1716 
Q 353 2575 817 3079 
Q 1281 3584 2069 3584 
Q 2775 3584 3186 3129 
Q 3597 2675 3597 1894 
z
M 3022 2063 
Q 3016 2534 2758 2815 
Q 2500 3097 2075 3097 
Q 1594 3097 1305 2825 
Q 1016 2553 972 2059 
L 3022 2063 
z
" transform="scale(0.015625)"/>
       <path id="DejaVuSans-20" transform="scale(0.015625)"/>
       <path id="DejaVuSans-28" d="M 1984 4856 
Q 1566 4138 1362 3434 
Q 1159 2731 1159 2009 
Q 1159 1288 1364 580 
Q 1569 -128 1984 -844 
L 1484 -844 
Q 1016 -109 783 600 
Q 550 1309 550 2009 
Q 550 2706 781 3412 
Q 1013 4119 1484 4856 
L 1984 4856 
z
" transform="scale(0.015625)"/>
       <path id="DejaVuSans-73" d="M 2834 3397 
L 2834 2853 
Q 2591 2978 2328 3040 
Q 2066 3103 1784 3103 
Q 1356 3103 1142 2972 
Q 928 2841 928 2578 
Q 928 2378 1081 2264 
Q 1234 2150 1697 2047 
L 1894 2003 
Q 2506 1872 2764 1633 
Q 3022 1394 3022 966 
Q 3022 478 2636 193 
Q 2250 -91 1575 -91 
Q 1294 -91 989 -36 
Q 684 19 347 128 
L 347 722 
Q 666 556 975 473 
Q 1284 391 1588 391 
Q 1994 391 2212 530 
Q 2431 669 2431 922 
Q 2431 1156 2273 1281 
Q 2116 1406 1581 1522 
L 1381 1569 
Q 847 1681 609 1914 
Q 372 2147 372 2553 
Q 372 3047 722 3315 
Q 1072 3584 1716 3584 
Q 2034 3584 2315 3537 
Q 2597 3491 2834 3397 
z
" transform="scale(0.015625)"/>
       <path id="DejaVuSans-29" d="M 513 4856 
L 1013 4856 
Q 1481 4119 1714 3412 
Q 1947 2706 1947 2009 
Q 1947 1309 1714 600 
Q 1481 -109 1013 -844 
L 513 -844 
Q 928 -128 1133 580 
Q 1338 1288 1338 2009 
Q 1338 2731 1133 3434 
Q 928 4138 513 4856 
z
" transform="scale(0.015625)"/>
      </defs>
      <use xlink:href="#DejaVuSans-54"/>
      <use xlink:href="#DejaVuSans-69" transform="translate(57.958984 0)"/>
      <use xlink:href="#DejaVuSans-6d" transform="translate(85.742188 0)"/>
      <use xlink:href="#DejaVuSans-65" transform="translate(183.154297 0)"/>
      <use xlink:href="#DejaVuSans-20" transform="translate(244.677734 0)"/>
      <use xlink:href="#DejaVuSans-28" transform="translate(276.464844 0)"/>
      <use xlink:href="#DejaVuSans-73" transform="translate(315.478516 0)"/>
      <use xlink:href="#DejaVuSans-29" transform="translate(367.578125 0)"/>
     </g>
    </g>
   </g>
   <g id="matplotlib.axis_2">
    <g id="ytick_1">
     <g id="line2d_12">
      <defs>
       <path id="m10fd0813b1" d="M 0 0 
L -3.5 0 
" style="stroke: #000000"/>
      </defs>
      <g>
       <use xlink:href="#m10fd0813b1" x="67.040625" y="14.798438" style="stroke: #000000"/>
      </g>
     </g>
     <g id="text_13">
      <!-- −3 -->
      <g transform="translate(30.55625 22.396875) scale(0.2 -0.2)">
       <defs>
        <path id="DejaVuSans-2212" d="M 678 2272 
L 4684 2272 
L 4684 1741 
L 678 1741 
L 678 2272 
z
" transform="scale(0.015625)"/>
       </defs>
       <use xlink:href="#DejaVuSans-2212"/>
       <use xlink:href="#DejaVuSans-33" transform="translate(83.789062 0)"/>
      </g>
     </g>
    </g>
    <g id="ytick_2">
     <g id="line2d_13">
      <g>
       <use xlink:href="#m10fd0813b1" x="67.040625" y="95.813293" style="stroke: #000000"/>
      </g>
     </g>
     <g id="text_14">
      <!-- −2 -->
      <g transform="translate(30.55625 103.411731) scale(0.2 -0.2)">
       <use xlink:href="#DejaVuSans-2212"/>
       <use xlink:href="#DejaVuSans-32" transform="translate(83.789062 0)"/>
      </g>
     </g>
    </g>
    <g id="ytick_3">
     <g id="line2d_14">
      <g>
       <use xlink:href="#m10fd0813b1" x="67.040625" y="176.828149" style="stroke: #000000"/>
      </g>
     </g>
     <g id="text_15">
      <!-- −1 -->
      <g transform="translate(30.55625 184.426586) scale(0.2 -0.2)">
       <use xlink:href="#DejaVuSans-2212"/>
       <use xlink:href="#DejaVuSans-31" transform="translate(83.789062 0)"/>
      </g>
     </g>
    </g>
    <g id="ytick_4">
     <g id="line2d_15">
      <g>
       <use xlink:href="#m10fd0813b1" x="67.040625" y="257.843004" style="stroke: #000000"/>
      </g>
     </g>
     <g id="text_16">
      <!-- 0 -->
      <g transform="translate(47.315625 265.441442) scale(0.2 -0.2)">
       <use xlink:href="#DejaVuSans-30"/>
      </g>
     </g>
    </g>
    <g id="ytick_5">
     <g id="line2d_16">
      <g>
       <use xlink:href="#m10fd0813b1" x="67.040625" y="338.85786" style="stroke: #000000"/>
      </g>
     </g>
     <g id="text_17">
      <!-- 1 -->
      <g transform="translate(47.315625 346.456298) scale(0.2 -0.2)">
       <use xlink:href="#DejaVuSans-31"/>
      </g>
     </g>
    </g>
    <g id="ytick_6">
     <g id="line2d_17">
      <g>
       <use xlink:href="#m10fd0813b1" x="67.040625" y="419.872716" style="stroke: #000000"/>
      </g>
     </g>
     <g id="text_18">
      <!-- 2 -->
      <g transform="translate(47.315625 427.471153) scale(0.2 -0.2)">
       <use xlink:href="#DejaVuSans-32"/>
      </g>
     </g>
    </g>
    <g id="ytick_7">
     <g id="line2d_18">
      <g>
       <use xlink:href="#m10fd0813b1" x="67.040625" y="500.887571" style="stroke: #000000"/>
      </g>
     </g>
     <g id="text_19">
      <!-- 3 -->
      <g transform="translate(47.315625 508.486009) scale(0.2 -0.2)">
       <use xlink:href="#DejaVuSans-33"/>
      </g>
     </g>
    </g>
    <g id="text_20">
     <!-- µV -->
     <g transform="translate(22.396875 271.046129) rotate(-90) scale(0.2 -0.2)">
      <defs>
       <path id="DejaVuSans-b5" d="M 544 -1331 
L 544 3500 
L 1119 3500 
L 1119 1325 
Q 1119 872 1334 640 
Q 1550 409 1972 409 
Q 2434 409 2667 671 
Q 2900 934 2900 1459 
L 2900 3500 
L 3475 3500 
L 3475 806 
Q 3475 619 3529 530 
Q 3584 441 3700 441 
Q 3728 441 3778 458 
Q 3828 475 3916 513 
L 3916 50 
Q 3788 -22 3673 -56 
Q 3559 -91 3450 -91 
Q 3234 -91 3106 31 
Q 2978 153 2931 403 
Q 2775 156 2548 32 
Q 2322 -91 2016 -91 
Q 1697 -91 1473 31 
Q 1250 153 1119 397 
L 1119 -1331 
L 544 -1331 
z
" transform="scale(0.015625)"/>
       <path id="DejaVuSans-56" d="M 1831 0 
L 50 4666 
L 709 4666 
L 2188 738 
L 3669 4666 
L 4325 4666 
L 2547 0 
L 1831 0 
z
" transform="scale(0.015625)"/>
      </defs>
      <use xlink:href="#DejaVuSans-b5"/>
      <use xlink:href="#DejaVuSans-56" transform="translate(63.623047 0)"/>
     </g>
    </g>
   </g>
   <g id="line2d_19">
    <path d="M 101.954884 260.258005 
L 104.282501 236.872027 
L 106.610119 214.987817 
L 108.937736 202.060747 
L 111.265353 202.886405 
L 113.592971 216.114286 
L 115.920588 236.467429 
L 118.248205 259.867628 
L 122.90344 311.270761 
L 125.231057 333.440514 
L 127.558674 343.880077 
L 129.886291 335.92269 
L 132.213909 309.442018 
L 136.869143 233.162104 
L 139.196761 203.431205 
L 141.524378 187.217438 
L 143.851995 182.908425 
L 146.179612 185.178555 
L 148.50723 191.113147 
L 150.834847 203.59698 
L 153.162464 228.444862 
L 155.490081 268.253435 
L 157.817699 317.915262 
L 160.145316 363.779957 
L 162.472933 388.393298 
L 164.800551 381.4894 
L 167.128168 348.853421 
L 169.455785 309.864019 
L 171.783402 284.12924 
L 174.11102 278.618774 
L 176.438637 286.410561 
L 178.766254 295.972265 
L 181.093871 298.98681 
L 183.421489 291.498299 
L 185.749106 273.020334 
L 190.404341 220.408482 
L 192.731958 201.504499 
L 195.059575 195.266851 
L 197.387192 200.278595 
L 199.71481 209.704502 
L 202.042427 215.843851 
L 204.370044 215.283756 
L 206.697662 211.457465 
L 209.025279 211.611738 
L 211.352896 220.474799 
L 213.680513 237.654508 
L 218.335748 281.372278 
L 220.663365 298.394061 
L 222.990982 308.44751 
L 225.3186 312.917818 
L 227.646217 315.819204 
L 229.973834 321.480839 
L 232.301452 331.896427 
L 234.629069 345.668093 
L 236.956686 357.678122 
L 239.284303 361.210879 
L 241.611921 353.602871 
L 243.939538 339.515194 
L 246.267155 326.88711 
L 248.594772 320.32509 
L 250.92239 318.157715 
L 253.250007 314.966031 
L 255.577624 307.08407 
L 257.905242 296.955801 
L 260.232859 291.184594 
L 262.560476 292.831916 
L 264.888093 297.239733 
L 267.215711 295.849948 
L 269.543328 281.985477 
L 271.870945 254.894827 
L 276.52618 185.906263 
L 278.853797 160.339133 
L 281.181414 146.375929 
L 283.509032 141.477132 
L 285.836649 140.953605 
L 288.164266 142.937207 
L 290.491883 150.244083 
L 292.819501 167.122198 
L 295.147118 193.679216 
L 297.474735 222.583322 
L 299.802353 242.374297 
L 302.12997 246.153992 
L 306.785204 230.24622 
L 309.112822 231.205101 
L 311.440439 239.632036 
L 313.768056 247.490448 
L 316.095673 249.558309 
L 318.423291 248.266663 
L 320.750908 250.236108 
L 323.078525 259.424774 
L 325.406143 273.346651 
L 327.73376 284.261626 
L 330.061377 284.107637 
L 332.388994 271.138555 
L 334.716612 252.270541 
L 337.044229 239.145081 
L 339.371846 240.55288 
L 341.699463 256.778658 
L 344.027081 280.409735 
L 346.354698 302.331342 
L 348.682315 317.741415 
L 351.009933 328.93409 
L 353.33755 341.981826 
L 355.665167 358.808019 
L 357.992784 373.648431 
L 360.320402 379.741674 
L 362.648019 377.115753 
L 364.975636 370.869693 
L 367.303253 362.556088 
L 369.630871 347.421017 
L 371.958488 319.998433 
L 374.286105 280.186852 
L 376.613723 234.540115 
L 378.94134 192.663411 
L 381.268957 161.781096 
L 383.596574 145.463081 
L 385.924192 145.982275 
L 388.251809 165.018225 
L 390.579426 199.810707 
L 392.907044 240.722845 
L 395.234661 275.443503 
L 397.562278 296.456162 
L 399.889895 305.133811 
L 402.217513 308.685624 
L 404.54513 312.743781 
L 406.872747 318.500274 
L 411.527982 331.539586 
L 418.510834 351.738029 
L 420.838451 357.584524 
L 423.166068 364.965732 
L 425.493685 373.982368 
L 427.821303 379.159477 
L 430.14892 373.180428 
L 432.476537 354.453441 
L 434.804154 329.299605 
L 437.131772 306.284138 
L 439.459389 288.948179 
L 441.787006 274.425205 
L 444.114624 257.76323 
L 448.769858 215.473223 
L 451.097475 201.061329 
L 453.425093 197.966723 
L 455.75271 203.163342 
L 458.080327 209.120294 
L 460.407944 210.239037 
L 462.735562 207.559656 
L 465.063179 207.409966 
L 467.390796 214.434379 
L 469.718414 226.39919 
L 472.046031 237.364431 
L 474.373648 244.364896 
L 476.701265 249.312275 
L 479.028883 255.106462 
L 483.684117 269.100249 
L 486.011735 274.033988 
L 488.339352 275.737075 
L 490.666969 273.382399 
L 495.322204 262.385968 
L 497.649821 260.858154 
L 499.977438 264.302427 
L 502.305055 272.392839 
L 504.632673 286.01529 
L 506.96029 304.398421 
L 509.287907 320.715204 
L 511.615525 324.716746 
L 513.943142 312.462863 
L 516.270759 291.797319 
L 518.598376 275.932677 
L 520.925994 271.837186 
L 523.253611 276.208551 
L 525.581228 281.719923 
L 527.908845 285.676912 
L 530.236463 290.954948 
L 532.56408 300.122058 
L 534.891697 310.00563 
L 537.219315 312.08192 
L 539.546932 298.138622 
L 541.874549 267.472518 
L 544.202166 229.734235 
L 546.529784 200.898698 
L 548.857401 194.060345 
L 551.185018 210.901355 
L 553.512635 240.545205 
L 555.840253 267.954321 
L 558.16787 283.452638 
L 560.495487 286.542052 
L 562.823105 283.539808 
L 565.150722 281.681626 
L 567.478339 283.876722 
L 572.133574 293.264762 
L 574.461191 298.126873 
L 576.788808 303.372144 
L 579.116426 307.340908 
L 581.444043 306.348651 
L 583.77166 297.697789 
L 586.099277 282.65677 
L 588.426895 266.189928 
L 590.754512 253.546803 
L 593.082129 247.242901 
L 595.409746 246.166995 
L 597.737364 246.730427 
L 600.064981 244.918457 
L 602.392598 238.493948 
L 604.720216 229.052739 
L 607.047833 221.968475 
L 609.37545 221.979978 
L 611.703067 229.875911 
L 614.030685 243.423127 
L 616.358302 259.376089 
L 618.685919 273.609028 
L 621.013536 282.824275 
L 623.341154 286.819601 
L 625.668771 287.453167 
L 627.996388 285.985898 
L 630.324006 282.903794 
L 634.97924 274.62616 
L 637.306857 273.205378 
L 639.634475 277.70775 
L 641.962092 289.732403 
L 644.289709 305.942563 
L 646.617327 316.362425 
L 648.944944 309.35716 
L 651.272561 281.891464 
L 653.600178 245.588203 
L 655.927796 219.611789 
L 658.255413 215.997341 
L 660.58303 230.93604 
L 662.910647 249.942922 
L 665.238265 260.552295 
L 667.565882 260.246522 
L 669.893499 253.877371 
L 672.221117 246.585378 
L 674.548734 241.475058 
L 676.876351 241.612216 
L 679.203968 248.32473 
L 681.531586 258.081509 
L 683.859203 264.066491 
L 686.18682 262.284574 
L 688.514437 255.83943 
L 690.842055 253.515352 
L 693.169672 262.788107 
L 695.497289 283.215605 
L 697.824907 307.533065 
L 700.152524 328.940097 
L 702.480141 344.798494 
L 704.807758 354.320344 
L 707.135376 354.993733 
L 709.462993 342.664435 
L 711.79061 315.161707 
L 716.445845 237.994029 
L 718.773462 210.707421 
L 721.101079 201.468373 
L 723.428697 210.520867 
L 725.756314 234.082248 
L 728.083931 266.952271 
L 730.411548 303.304594 
L 732.739166 337.443743 
L 735.066783 365.249801 
L 737.3944 384.319046 
L 739.722018 392.527281 
L 742.049635 387.748789 
L 744.377252 369.567027 
L 746.704869 341.930652 
L 749.032487 312.611617 
L 751.360104 289.768673 
L 753.687721 278.356709 
L 756.015338 277.406243 
L 758.342956 280.603352 
L 760.670573 281.68181 
L 762.99819 277.746332 
L 765.325808 268.913699 
L 769.981042 246.130651 
L 774.636277 224.446897 
L 776.963894 215.460011 
L 779.291511 212.757482 
L 781.619128 218.974573 
L 786.274363 244.33563 
L 788.60198 250.097836 
L 790.929598 246.898365 
L 793.257215 239.377789 
L 795.584832 235.233967 
L 797.912449 239.80234 
L 800.240067 254.21192 
L 800.240067 254.21192 
" clip-path="url(#p07ee1c5ade)" style="fill: none; stroke-dasharray: 5.55,2.4; stroke-dashoffset: 0; stroke: #0070b0; stroke-width: 1.5"/>
   </g>
   <g id="line2d_20">
    <path d="M 101.954884 275.868867 
L 104.282501 247.541101 
L 106.610119 238.706929 
L 108.937736 249.203411 
L 111.265353 267.261826 
L 113.592971 277.222756 
L 115.920588 270.22094 
L 118.248205 249.063536 
L 120.575822 225.686169 
L 122.90344 214.573852 
L 125.231057 224.302643 
L 127.558674 251.041542 
L 129.886291 279.625266 
L 132.213909 294.530578 
L 134.541526 292.08033 
L 136.869143 283.334793 
L 139.196761 283.959105 
L 141.524378 301.806751 
L 143.851995 332.150839 
L 146.179612 358.387718 
L 148.50723 359.309567 
L 150.834847 326.417008 
L 153.162464 274.674213 
L 155.490081 230.797286 
L 157.817699 209.892912 
L 160.145316 204.130464 
L 162.472933 192.969311 
L 164.800551 164.468091 
L 167.128168 125.772453 
L 169.455785 95.738995 
L 171.783402 89.773858 
L 174.11102 110.627249 
L 176.438637 149.77189 
L 178.766254 194.643713 
L 181.093871 234.606784 
L 183.421489 263.053297 
L 185.749106 277.096741 
L 188.076723 278.453506 
L 190.404341 273.542085 
L 192.731958 271.17566 
L 195.059575 278.593268 
L 197.387192 297.464388 
L 199.71481 321.26137 
L 202.042427 338.641388 
L 204.370044 342.173924 
L 206.697662 333.965147 
L 209.025279 321.305837 
L 211.352896 309.339863 
L 216.008131 288.715506 
L 218.335748 276.070836 
L 222.990982 243.59655 
L 225.3186 232.634354 
L 227.646217 232.976849 
L 229.973834 248.026928 
L 232.301452 273.633283 
L 234.629069 295.640882 
L 236.956686 298.049762 
L 239.284303 276.191518 
L 241.611921 241.720894 
L 243.939538 215.65198 
L 246.267155 213.84125 
L 248.594772 235.015996 
L 250.92239 261.927218 
L 253.250007 276.710255 
L 255.577624 275.804859 
L 257.905242 269.739882 
L 260.232859 268.670175 
L 262.560476 271.130266 
L 264.888093 265.7184 
L 267.215711 242.859034 
L 271.870945 168.272049 
L 274.198562 145.741615 
L 276.52618 141.232439 
L 281.181414 154.01269 
L 283.509032 154.026023 
L 285.836649 147.907019 
L 292.819501 123.347369 
L 295.147118 117.433257 
L 297.474735 115.521508 
L 299.802353 117.989977 
L 302.12997 125.903762 
L 304.457587 143.076967 
L 306.785204 171.678827 
L 309.112822 206.028738 
L 311.440439 234.337029 
L 313.768056 250.521118 
L 316.095673 261.531359 
L 318.423291 278.213069 
L 320.750908 299.957089 
L 323.078525 312.984348 
L 325.406143 303.056728 
L 327.73376 269.73273 
L 330.061377 228.14863 
L 332.388994 197.91677 
L 334.716612 191.636687 
L 337.044229 210.566173 
L 341.699463 281.863131 
L 344.027081 306.583795 
L 346.354698 314.67335 
L 348.682315 311.875799 
L 351.009933 309.625236 
L 353.33755 315.533169 
L 355.665167 329.121784 
L 357.992784 345.267439 
L 360.320402 359.176353 
L 362.648019 367.156654 
L 364.975636 366.724287 
L 367.303253 356.658363 
L 369.630871 337.265985 
L 371.958488 310.385257 
L 374.286105 280.104149 
L 376.613723 252.600637 
L 378.94134 232.908837 
L 381.268957 222.148252 
L 383.596574 220.633232 
L 385.924192 230.880787 
L 388.251809 253.487058 
L 390.579426 281.216524 
L 392.907044 301.821806 
L 395.234661 307.853173 
L 397.562278 302.875858 
L 399.889895 296.772396 
L 402.217513 296.140166 
L 404.54513 300.805989 
L 406.872747 308.924565 
L 409.200364 320.300446 
L 411.527982 334.913137 
L 413.855599 350.781177 
L 416.183216 365.400654 
L 418.510834 377.38725 
L 420.838451 385.632811 
L 423.166068 387.503149 
L 425.493685 379.46554 
L 427.821303 361.389646 
L 430.14892 340.031809 
L 432.476537 323.8173 
L 434.804154 313.137309 
L 437.131772 297.387276 
L 439.459389 264.727162 
L 441.787006 216.435713 
L 444.114624 170.464655 
L 446.442241 146.346233 
L 448.769858 147.135454 
L 451.097475 158.544409 
L 453.425093 165.636027 
L 455.75271 168.422061 
L 458.080327 180.910214 
L 460.407944 215.74492 
L 462.735562 271.108544 
L 465.063179 330.942703 
L 467.390796 376.470242 
L 469.718414 396.646508 
L 472.046031 391.563166 
L 474.373648 369.966565 
L 481.3565 289.790573 
L 483.684117 260.188441 
L 488.339352 196.367614 
L 490.666969 172.698679 
L 492.994586 158.414204 
L 495.322204 150.445045 
L 497.649821 145.767529 
L 499.977438 146.426014 
L 502.305055 158.847277 
L 504.632673 187.845613 
L 506.96029 230.488556 
L 511.615525 324.237764 
L 513.943142 366.778248 
L 516.270759 405.73378 
L 518.598376 437.595264 
L 520.925994 455.534684 
L 523.253611 455.493959 
L 525.581228 440.90795 
L 527.908845 419.837681 
L 537.219315 330.468963 
L 539.546932 310.872793 
L 541.874549 290.182245 
L 544.202166 266.728715 
L 546.529784 241.871028 
L 548.857401 219.614533 
L 551.185018 207.002499 
L 553.512635 212.17685 
L 555.840253 236.939222 
L 558.16787 271.538491 
L 560.495487 301.711062 
L 562.823105 320.058681 
L 565.150722 328.685965 
L 567.478339 331.964005 
L 569.805956 332.503787 
L 572.133574 334.447803 
L 574.461191 342.828369 
L 576.788808 356.616427 
L 579.116426 367.934526 
L 581.444043 368.045906 
L 583.77166 354.357225 
L 586.099277 333.104127 
L 588.426895 314.724325 
L 590.754512 304.858459 
L 593.082129 300.502471 
L 595.409746 293.193404 
L 597.737364 276.011239 
L 600.064981 247.4652 
L 602.392598 210.272296 
L 607.047833 128.494275 
L 609.37545 101.743933 
L 611.703067 102.998469 
L 614.030685 141.837408 
L 616.358302 213.321262 
L 618.685919 296.183439 
L 621.013536 363.444826 
L 623.341154 397.653631 
L 625.668771 398.135874 
L 627.996388 375.779231 
L 632.651623 315.072623 
L 637.306857 263.145061 
L 641.962092 206.551531 
L 644.289709 177.131456 
L 646.617327 149.233764 
L 648.944944 128.105356 
L 651.272561 118.518364 
L 653.600178 118.886365 
L 658.255413 126.259899 
L 660.58303 133.872171 
L 662.910647 150.462426 
L 665.238265 174.17515 
L 667.565882 194.863348 
L 669.893499 201.1326 
L 672.221117 190.162033 
L 674.548734 169.318006 
L 676.876351 150.597534 
L 679.203968 144.66489 
L 681.531586 156.929022 
L 683.859203 183.730083 
L 686.18682 214.05996 
L 688.514437 237.065462 
L 690.842055 247.595402 
L 693.169672 246.173712 
L 695.497289 239.05255 
L 697.824907 237.786389 
L 700.152524 254.650457 
L 702.480141 293.993048 
L 704.807758 346.659169 
L 707.135376 394.004086 
L 709.462993 420.054467 
L 711.79061 419.003823 
L 714.118227 393.729445 
L 716.445845 350.853 
L 718.773462 298.041498 
L 721.101079 242.478404 
L 723.428697 190.22076 
L 725.756314 146.560836 
L 728.083931 116.02943 
L 730.411548 101.174363 
L 732.739166 102.013605 
L 735.066783 114.57241 
L 737.3944 132.035705 
L 739.722018 150.583231 
L 742.049635 173.296268 
L 744.377252 203.394748 
L 746.704869 236.366226 
L 749.032487 262.995443 
L 751.360104 277.563357 
L 753.687721 279.989831 
L 756.015338 273.973604 
L 758.342956 263.464439 
L 760.670573 249.686151 
L 762.99819 231.290592 
L 765.325808 209.541982 
L 767.653425 190.852065 
L 769.981042 182.536219 
L 772.308659 185.662039 
L 776.963894 203.095951 
L 779.291511 211.129193 
L 781.619128 220.930668 
L 783.946746 233.304958 
L 786.274363 248.049464 
L 788.60198 267.231377 
L 790.929598 292.897169 
L 797.912449 386.0585 
L 800.240067 411.085096 
L 800.240067 411.085096 
" clip-path="url(#p07ee1c5ade)" style="fill: none; stroke-dasharray: 5.55,2.4; stroke-dashoffset: 0; stroke: #cc78a6; stroke-width: 1.5"/>
   </g>
   <g id="line2d_21">
    <path d="M 67.040625 257.843004 
L 835.154326 257.843004 
" clip-path="url(#p07ee1c5ade)" style="fill: none; stroke-dasharray: 1.85,0.8; stroke-dashoffset: 0; stroke: #000000; stroke-width: 0.5"/>
   </g>
   <g id="line2d_22">
    <path d="M 218.33575 500.887571 
L 218.33575 14.798437 
" clip-path="url(#p07ee1c5ade)" style="fill: none; stroke-dasharray: 1.85,0.8; stroke-dashoffset: 0; stroke: #000000; stroke-width: 0.5"/>
   </g>
   <g id="patch_3">
    <path d="M 67.040625 500.887571 
L 67.040625 14.798438 
" style="fill: none; stroke: #000000; stroke-linejoin: miter; stroke-linecap: square"/>
   </g>
   <g id="patch_4">
    <path d="M 835.154326 500.887571 
L 835.154326 14.798438 
" style="fill: none; stroke: #000000; stroke-linejoin: miter; stroke-linecap: square"/>
   </g>
   <g id="patch_5">
    <path d="M 67.040625 500.887571 
L 835.154326 500.887571 
" style="fill: none; stroke: #000000; stroke-linejoin: miter; stroke-linecap: square"/>
   </g>
   <g id="patch_6">
    <path d="M 67.040625 14.798437 
L 835.154326 14.798437 
" style="fill: none; stroke: #000000; stroke-linejoin: miter; stroke-linecap: square"/>
   </g>
   <g id="legend_1">
    <g id="patch_7">
     <path d="M 530.335576 89.510937 
L 821.154326 89.510937 
Q 825.154326 89.510937 825.154326 85.510937 
L 825.154326 28.798437 
Q 825.154326 24.798437 821.154326 24.798437 
L 530.335576 24.798437 
Q 526.335576 24.798437 526.335576 28.798437 
L 526.335576 85.510937 
Q 526.335576 89.510937 530.335576 89.510937 
z
" style="fill: #ffffff; opacity: 0.8; stroke: #cccccc; stroke-linejoin: miter"/>
    </g>
    <g id="line2d_23">
     <path d="M 534.335576 40.995312 
L 554.335576 40.995312 
L 574.335576 40.995312 
" style="fill: none; stroke-dasharray: 5.55,2.4; stroke-dashoffset: 0; stroke: #0070b0; stroke-width: 1.5"/>
    </g>
    <g id="text_21">
     <!-- High Control [pos-neg] -->
     <g transform="translate(590.335576 47.995312) scale(0.2 -0.2)">
      <defs>
       <path id="DejaVuSans-48" d="M 628 4666 
L 1259 4666 
L 1259 2753 
L 3553 2753 
L 3553 4666 
L 4184 4666 
L 4184 0 
L 3553 0 
L 3553 2222 
L 1259 2222 
L 1259 0 
L 628 0 
L 628 4666 
z
" transform="scale(0.015625)"/>
       <path id="DejaVuSans-67" d="M 2906 1791 
Q 2906 2416 2648 2759 
Q 2391 3103 1925 3103 
Q 1463 3103 1205 2759 
Q 947 2416 947 1791 
Q 947 1169 1205 825 
Q 1463 481 1925 481 
Q 2391 481 2648 825 
Q 2906 1169 2906 1791 
z
M 3481 434 
Q 3481 -459 3084 -895 
Q 2688 -1331 1869 -1331 
Q 1566 -1331 1297 -1286 
Q 1028 -1241 775 -1147 
L 775 -588 
Q 1028 -725 1275 -790 
Q 1522 -856 1778 -856 
Q 2344 -856 2625 -561 
Q 2906 -266 2906 331 
L 2906 616 
Q 2728 306 2450 153 
Q 2172 0 1784 0 
Q 1141 0 747 490 
Q 353 981 353 1791 
Q 353 2603 747 3093 
Q 1141 3584 1784 3584 
Q 2172 3584 2450 3431 
Q 2728 3278 2906 2969 
L 2906 3500 
L 3481 3500 
L 3481 434 
z
" transform="scale(0.015625)"/>
       <path id="DejaVuSans-68" d="M 3513 2113 
L 3513 0 
L 2938 0 
L 2938 2094 
Q 2938 2591 2744 2837 
Q 2550 3084 2163 3084 
Q 1697 3084 1428 2787 
Q 1159 2491 1159 1978 
L 1159 0 
L 581 0 
L 581 4863 
L 1159 4863 
L 1159 2956 
Q 1366 3272 1645 3428 
Q 1925 3584 2291 3584 
Q 2894 3584 3203 3211 
Q 3513 2838 3513 2113 
z
" transform="scale(0.015625)"/>
       <path id="DejaVuSans-43" d="M 4122 4306 
L 4122 3641 
Q 3803 3938 3442 4084 
Q 3081 4231 2675 4231 
Q 1875 4231 1450 3742 
Q 1025 3253 1025 2328 
Q 1025 1406 1450 917 
Q 1875 428 2675 428 
Q 3081 428 3442 575 
Q 3803 722 4122 1019 
L 4122 359 
Q 3791 134 3420 21 
Q 3050 -91 2638 -91 
Q 1578 -91 968 557 
Q 359 1206 359 2328 
Q 359 3453 968 4101 
Q 1578 4750 2638 4750 
Q 3056 4750 3426 4639 
Q 3797 4528 4122 4306 
z
" transform="scale(0.015625)"/>
       <path id="DejaVuSans-6f" d="M 1959 3097 
Q 1497 3097 1228 2736 
Q 959 2375 959 1747 
Q 959 1119 1226 758 
Q 1494 397 1959 397 
Q 2419 397 2687 759 
Q 2956 1122 2956 1747 
Q 2956 2369 2687 2733 
Q 2419 3097 1959 3097 
z
M 1959 3584 
Q 2709 3584 3137 3096 
Q 3566 2609 3566 1747 
Q 3566 888 3137 398 
Q 2709 -91 1959 -91 
Q 1206 -91 779 398 
Q 353 888 353 1747 
Q 353 2609 779 3096 
Q 1206 3584 1959 3584 
z
" transform="scale(0.015625)"/>
       <path id="DejaVuSans-6e" d="M 3513 2113 
L 3513 0 
L 2938 0 
L 2938 2094 
Q 2938 2591 2744 2837 
Q 2550 3084 2163 3084 
Q 1697 3084 1428 2787 
Q 1159 2491 1159 1978 
L 1159 0 
L 581 0 
L 581 3500 
L 1159 3500 
L 1159 2956 
Q 1366 3272 1645 3428 
Q 1925 3584 2291 3584 
Q 2894 3584 3203 3211 
Q 3513 2838 3513 2113 
z
" transform="scale(0.015625)"/>
       <path id="DejaVuSans-74" d="M 1172 4494 
L 1172 3500 
L 2356 3500 
L 2356 3053 
L 1172 3053 
L 1172 1153 
Q 1172 725 1289 603 
Q 1406 481 1766 481 
L 2356 481 
L 2356 0 
L 1766 0 
Q 1100 0 847 248 
Q 594 497 594 1153 
L 594 3053 
L 172 3053 
L 172 3500 
L 594 3500 
L 594 4494 
L 1172 4494 
z
" transform="scale(0.015625)"/>
       <path id="DejaVuSans-72" d="M 2631 2963 
Q 2534 3019 2420 3045 
Q 2306 3072 2169 3072 
Q 1681 3072 1420 2755 
Q 1159 2438 1159 1844 
L 1159 0 
L 581 0 
L 581 3500 
L 1159 3500 
L 1159 2956 
Q 1341 3275 1631 3429 
Q 1922 3584 2338 3584 
Q 2397 3584 2469 3576 
Q 2541 3569 2628 3553 
L 2631 2963 
z
" transform="scale(0.015625)"/>
       <path id="DejaVuSans-6c" d="M 603 4863 
L 1178 4863 
L 1178 0 
L 603 0 
L 603 4863 
z
" transform="scale(0.015625)"/>
       <path id="DejaVuSans-5b" d="M 550 4863 
L 1875 4863 
L 1875 4416 
L 1125 4416 
L 1125 -397 
L 1875 -397 
L 1875 -844 
L 550 -844 
L 550 4863 
z
" transform="scale(0.015625)"/>
       <path id="DejaVuSans-70" d="M 1159 525 
L 1159 -1331 
L 581 -1331 
L 581 3500 
L 1159 3500 
L 1159 2969 
Q 1341 3281 1617 3432 
Q 1894 3584 2278 3584 
Q 2916 3584 3314 3078 
Q 3713 2572 3713 1747 
Q 3713 922 3314 415 
Q 2916 -91 2278 -91 
Q 1894 -91 1617 61 
Q 1341 213 1159 525 
z
M 3116 1747 
Q 3116 2381 2855 2742 
Q 2594 3103 2138 3103 
Q 1681 3103 1420 2742 
Q 1159 2381 1159 1747 
Q 1159 1113 1420 752 
Q 1681 391 2138 391 
Q 2594 391 2855 752 
Q 3116 1113 3116 1747 
z
" transform="scale(0.015625)"/>
       <path id="DejaVuSans-2d" d="M 313 2009 
L 1997 2009 
L 1997 1497 
L 313 1497 
L 313 2009 
z
" transform="scale(0.015625)"/>
       <path id="DejaVuSans-5d" d="M 1947 4863 
L 1947 -844 
L 622 -844 
L 622 -397 
L 1369 -397 
L 1369 4416 
L 622 4416 
L 622 4863 
L 1947 4863 
z
" transform="scale(0.015625)"/>
      </defs>
      <use xlink:href="#DejaVuSans-48"/>
      <use xlink:href="#DejaVuSans-69" transform="translate(75.195312 0)"/>
      <use xlink:href="#DejaVuSans-67" transform="translate(102.978516 0)"/>
      <use xlink:href="#DejaVuSans-68" transform="translate(166.455078 0)"/>
      <use xlink:href="#DejaVuSans-20" transform="translate(229.833984 0)"/>
      <use xlink:href="#DejaVuSans-43" transform="translate(261.621094 0)"/>
      <use xlink:href="#DejaVuSans-6f" transform="translate(331.445312 0)"/>
      <use xlink:href="#DejaVuSans-6e" transform="translate(392.626953 0)"/>
      <use xlink:href="#DejaVuSans-74" transform="translate(456.005859 0)"/>
      <use xlink:href="#DejaVuSans-72" transform="translate(495.214844 0)"/>
      <use xlink:href="#DejaVuSans-6f" transform="translate(534.078125 0)"/>
      <use xlink:href="#DejaVuSans-6c" transform="translate(595.259766 0)"/>
      <use xlink:href="#DejaVuSans-20" transform="translate(623.042969 0)"/>
      <use xlink:href="#DejaVuSans-5b" transform="translate(654.830078 0)"/>
      <use xlink:href="#DejaVuSans-70" transform="translate(693.84375 0)"/>
      <use xlink:href="#DejaVuSans-6f" transform="translate(757.320312 0)"/>
      <use xlink:href="#DejaVuSans-73" transform="translate(818.501953 0)"/>
      <use xlink:href="#DejaVuSans-2d" transform="translate(870.601562 0)"/>
      <use xlink:href="#DejaVuSans-6e" transform="translate(906.685547 0)"/>
      <use xlink:href="#DejaVuSans-65" transform="translate(970.064453 0)"/>
      <use xlink:href="#DejaVuSans-67" transform="translate(1031.587891 0)"/>
      <use xlink:href="#DejaVuSans-5d" transform="translate(1095.064453 0)"/>
     </g>
    </g>
    <g id="line2d_24">
     <path d="M 534.335576 70.351562 
L 554.335576 70.351562 
L 574.335576 70.351562 
" style="fill: none; stroke-dasharray: 5.55,2.4; stroke-dashoffset: 0; stroke: #cc78a6; stroke-width: 1.5"/>
    </g>
    <g id="text_22">
     <!-- Low Control [pos-neg] -->
     <g transform="translate(590.335576 77.351562) scale(0.2 -0.2)">
      <defs>
       <path id="DejaVuSans-4c" d="M 628 4666 
L 1259 4666 
L 1259 531 
L 3531 531 
L 3531 0 
L 628 0 
L 628 4666 
z
" transform="scale(0.015625)"/>
       <path id="DejaVuSans-77" d="M 269 3500 
L 844 3500 
L 1563 769 
L 2278 3500 
L 2956 3500 
L 3675 769 
L 4391 3500 
L 4966 3500 
L 4050 0 
L 3372 0 
L 2619 2869 
L 1863 0 
L 1184 0 
L 269 3500 
z
" transform="scale(0.015625)"/>
      </defs>
      <use xlink:href="#DejaVuSans-4c"/>
      <use xlink:href="#DejaVuSans-6f" transform="translate(53.962891 0)"/>
      <use xlink:href="#DejaVuSans-77" transform="translate(115.144531 0)"/>
      <use xlink:href="#DejaVuSans-20" transform="translate(196.931641 0)"/>
      <use xlink:href="#DejaVuSans-43" transform="translate(228.71875 0)"/>
      <use xlink:href="#DejaVuSans-6f" transform="translate(298.542969 0)"/>
      <use xlink:href="#DejaVuSans-6e" transform="translate(359.724609 0)"/>
      <use xlink:href="#DejaVuSans-74" transform="translate(423.103516 0)"/>
      <use xlink:href="#DejaVuSans-72" transform="translate(462.3125 0)"/>
      <use xlink:href="#DejaVuSans-6f" transform="translate(501.175781 0)"/>
      <use xlink:href="#DejaVuSans-6c" transform="translate(562.357422 0)"/>
      <use xlink:href="#DejaVuSans-20" transform="translate(590.140625 0)"/>
      <use xlink:href="#DejaVuSans-5b" transform="translate(621.927734 0)"/>
      <use xlink:href="#DejaVuSans-70" transform="translate(660.941406 0)"/>
      <use xlink:href="#DejaVuSans-6f" transform="translate(724.417969 0)"/>
      <use xlink:href="#DejaVuSans-73" transform="translate(785.599609 0)"/>
      <use xlink:href="#DejaVuSans-2d" transform="translate(837.699219 0)"/>
      <use xlink:href="#DejaVuSans-6e" transform="translate(873.783203 0)"/>
      <use xlink:href="#DejaVuSans-65" transform="translate(937.162109 0)"/>
      <use xlink:href="#DejaVuSans-67" transform="translate(998.685547 0)"/>
      <use xlink:href="#DejaVuSans-5d" transform="translate(1062.162109 0)"/>
     </g>
    </g>
   </g>
  </g>
 </g>
 <defs>
  <clipPath id="p07ee1c5ade">
   <rect x="67.040625" y="14.798437" width="768.113701" height="486.089134"/>
  </clipPath>
 </defs>
</svg>
