<?xml version="1.0" encoding="utf-8" standalone="no"?>
<!DOCTYPE svg PUBLIC "-//W3C//DTD SVG 1.1//EN"
  "http://www.w3.org/Graphics/SVG/1.1/DTD/svg11.dtd">
<svg xmlns:xlink="http://www.w3.org/1999/xlink" width="842.974326pt" height="559.305696pt" viewBox="0 0 842.974326 559.305696" xmlns="http://www.w3.org/2000/svg" version="1.1">
 <metadata>
  <rdf:RDF xmlns:dc="http://purl.org/dc/elements/1.1/" xmlns:cc="http://creativecommons.org/ns#" xmlns:rdf="http://www.w3.org/1999/02/22-rdf-syntax-ns#">
   <cc:Work>
    <dc:type rdf:resource="http://purl.org/dc/dcmitype/StillImage"/>
    <dc:date>2026-02-26T15:11:10.242860</dc:date>
    <dc:format>image/svg+xml</dc:format>
    <dc:creator>
     <cc:Agent>
      <dc:title>Matplotlib v3.10.8, https://matplotlib.org/</dc:title>
     </cc:Agent>
    </dc:creator>
   </cc:Work>
  </rdf:RDF>
 </metadata>
 <defs>
  <style type="text/css">*{stroke-linejoin: round; stroke-linecap: butt}</style>
 </defs>
 <g id="figure_1">
  <g id="patch_1">
   <path d="M -0 559.305696 
L 842.974326 559.305696 
L 842.974326 0 
L -0 0 
z
" style="fill: #ffffff"/>
  </g>
  <g id="axes_1">
   <g id="patch_2">
    <path d="M 52.388438 514.006946 
L 824.642138 514.006946 
L 824.642138 23.837812 
L 52.388438 23.837812 
z
" style="fill: #ffffff"/>
   </g>
   <g id="matplotlib.axis_1">
    <g id="xtick_1">
     <g id="line2d_1">
      <defs>
       <path id="mb3be4530c8" d="M 0 0 
L 0 3.5 
" style="stroke: #000000; stroke-width: 0.8"/>
      </defs>
      <g>
       <use xlink:href="#mb3be4530c8" x="52.388438" y="514.006946" style="stroke: #000000; stroke-width: 0.8"/>
      </g>
     </g>
     <g id="text_1">
      <!-- 0.0 -->
      <g transform="translate(41.25625 531.644759) scale(0.14 -0.14)">
       <defs>
        <path id="DejaVuSans-30" d="M 2034 4250 
Q 1547 4250 1301 3770 
Q 1056 3291 1056 2328 
Q 1056 1369 1301 889 
Q 1547 409 2034 409 
Q 2525 409 2770 889 
Q 3016 1369 3016 2328 
Q 3016 3291 2770 3770 
Q 2525 4250 2034 4250 
z
M 2034 4750 
Q 2819 4750 3233 4129 
Q 3647 3509 3647 2328 
Q 3647 1150 3233 529 
Q 2819 -91 2034 -91 
Q 1250 -91 836 529 
Q 422 1150 422 2328 
Q 422 3509 836 4129 
Q 1250 4750 2034 4750 
z
" transform="scale(0.015625)"/>
        <path id="DejaVuSans-2e" d="M 684 794 
L 1344 794 
L 1344 0 
L 684 0 
L 684 794 
z
" transform="scale(0.015625)"/>
       </defs>
       <use xlink:href="#DejaVuSans-30"/>
       <use xlink:href="#DejaVuSans-2e" transform="translate(63.623047 0)"/>
       <use xlink:href="#DejaVuSans-30" transform="translate(95.410156 0)"/>
      </g>
     </g>
    </g>
    <g id="xtick_2">
     <g id="line2d_2">
      <g>
       <use xlink:href="#mb3be4530c8" x="206.839178" y="514.006946" style="stroke: #000000; stroke-width: 0.8"/>
      </g>
     </g>
     <g id="text_2">
      <!-- 0.1 -->
      <g transform="translate(195.70699 531.644759) scale(0.14 -0.14)">
       <defs>
        <path id="DejaVuSans-31" d="M 794 531 
L 1825 531 
L 1825 4091 
L 703 3866 
L 703 4441 
L 1819 4666 
L 2450 4666 
L 2450 531 
L 3481 531 
L 3481 0 
L 794 0 
L 794 531 
z
" transform="scale(0.015625)"/>
       </defs>
       <use xlink:href="#DejaVuSans-30"/>
       <use xlink:href="#DejaVuSans-2e" transform="translate(63.623047 0)"/>
       <use xlink:href="#DejaVuSans-31" transform="translate(95.410156 0)"/>
      </g>
     </g>
    </g>
    <g id="xtick_3">
     <g id="line2d_3">
      <g>
       <use xlink:href="#mb3be4530c8" x="361.289918" y="514.006946" style="stroke: #000000; stroke-width: 0.8"/>
      </g>
     </g>
     <g id="text_3">
      <!-- 0.2 -->
      <g transform="translate(350.15773 531.644759) scale(0.14 -0.14)">
       <defs>
        <path id="DejaVuSans-32" d="M 1228 531 
L 3431 531 
L 3431 0 
L 469 0 
L 469 531 
Q 828 903 1448 1529 
Q 2069 2156 2228 2338 
Q 2531 2678 2651 2914 
Q 2772 3150 2772 3378 
Q 2772 3750 2511 3984 
Q 2250 4219 1831 4219 
Q 1534 4219 1204 4116 
Q 875 4013 500 3803 
L 500 4441 
Q 881 4594 1212 4672 
Q 1544 4750 1819 4750 
Q 2544 4750 2975 4387 
Q 3406 4025 3406 3419 
Q 3406 3131 3298 2873 
Q 3191 2616 2906 2266 
Q 2828 2175 2409 1742 
Q 1991 1309 1228 531 
z
" transform="scale(0.015625)"/>
       </defs>
       <use xlink:href="#DejaVuSans-30"/>
       <use xlink:href="#DejaVuSans-2e" transform="translate(63.623047 0)"/>
       <use xlink:href="#DejaVuSans-32" transform="translate(95.410156 0)"/>
      </g>
     </g>
    </g>
    <g id="xtick_4">
     <g id="line2d_4">
      <g>
       <use xlink:href="#mb3be4530c8" x="515.740658" y="514.006946" style="stroke: #000000; stroke-width: 0.8"/>
      </g>
     </g>
     <g id="text_4">
      <!-- 0.3 -->
      <g transform="translate(504.60847 531.644759) scale(0.14 -0.14)">
       <defs>
        <path id="DejaVuSans-33" d="M 2597 2516 
Q 3050 2419 3304 2112 
Q 3559 1806 3559 1356 
Q 3559 666 3084 287 
Q 2609 -91 1734 -91 
Q 1441 -91 1130 -33 
Q 819 25 488 141 
L 488 750 
Q 750 597 1062 519 
Q 1375 441 1716 441 
Q 2309 441 2620 675 
Q 2931 909 2931 1356 
Q 2931 1769 2642 2001 
Q 2353 2234 1838 2234 
L 1294 2234 
L 1294 2753 
L 1863 2753 
Q 2328 2753 2575 2939 
Q 2822 3125 2822 3475 
Q 2822 3834 2567 4026 
Q 2313 4219 1838 4219 
Q 1578 4219 1281 4162 
Q 984 4106 628 3988 
L 628 4550 
Q 988 4650 1302 4700 
Q 1616 4750 1894 4750 
Q 2613 4750 3031 4423 
Q 3450 4097 3450 3541 
Q 3450 3153 3228 2886 
Q 3006 2619 2597 2516 
z
" transform="scale(0.015625)"/>
       </defs>
       <use xlink:href="#DejaVuSans-30"/>
       <use xlink:href="#DejaVuSans-2e" transform="translate(63.623047 0)"/>
       <use xlink:href="#DejaVuSans-33" transform="translate(95.410156 0)"/>
      </g>
     </g>
    </g>
    <g id="xtick_5">
     <g id="line2d_5">
      <g>
       <use xlink:href="#mb3be4530c8" x="670.191398" y="514.006946" style="stroke: #000000; stroke-width: 0.8"/>
      </g>
     </g>
     <g id="text_5">
      <!-- 0.4 -->
      <g transform="translate(659.059211 531.644759) scale(0.14 -0.14)">
       <defs>
        <path id="DejaVuSans-34" d="M 2419 4116 
L 825 1625 
L 2419 1625 
L 2419 4116 
z
M 2253 4666 
L 3047 4666 
L 3047 1625 
L 3713 1625 
L 3713 1100 
L 3047 1100 
L 3047 0 
L 2419 0 
L 2419 1100 
L 313 1100 
L 313 1709 
L 2253 4666 
z
" transform="scale(0.015625)"/>
       </defs>
       <use xlink:href="#DejaVuSans-30"/>
       <use xlink:href="#DejaVuSans-2e" transform="translate(63.623047 0)"/>
       <use xlink:href="#DejaVuSans-34" transform="translate(95.410156 0)"/>
      </g>
     </g>
    </g>
    <g id="xtick_6">
     <g id="line2d_6">
      <g>
       <use xlink:href="#mb3be4530c8" x="824.642138" y="514.006946" style="stroke: #000000; stroke-width: 0.8"/>
      </g>
     </g>
     <g id="text_6">
      <!-- 0.5 -->
      <g transform="translate(813.509951 531.644759) scale(0.14 -0.14)">
       <defs>
        <path id="DejaVuSans-35" d="M 691 4666 
L 3169 4666 
L 3169 4134 
L 1269 4134 
L 1269 2991 
Q 1406 3038 1543 3061 
Q 1681 3084 1819 3084 
Q 2600 3084 3056 2656 
Q 3513 2228 3513 1497 
Q 3513 744 3044 326 
Q 2575 -91 1722 -91 
Q 1428 -91 1123 -41 
Q 819 9 494 109 
L 494 744 
Q 775 591 1075 516 
Q 1375 441 1709 441 
Q 2250 441 2565 725 
Q 2881 1009 2881 1497 
Q 2881 1984 2565 2268 
Q 2250 2553 1709 2553 
Q 1456 2553 1204 2497 
Q 953 2441 691 2322 
L 691 4666 
z
" transform="scale(0.015625)"/>
       </defs>
       <use xlink:href="#DejaVuSans-30"/>
       <use xlink:href="#DejaVuSans-2e" transform="translate(63.623047 0)"/>
       <use xlink:href="#DejaVuSans-35" transform="translate(95.410156 0)"/>
      </g>
     </g>
    </g>
    <g id="text_7">
     <!-- Time (s) -->
     <g transform="translate(410.054819 549.194134) scale(0.14 -0.14)">
      <defs>
       <path id="DejaVuSans-54" d="M -19 4666 
L 3928 4666 
L 3928 4134 
L 2272 4134 
L 2272 0 
L 1638 0 
L 1638 4134 
L -19 4134 
L -19 4666 
z
" transform="scale(0.015625)"/>
       <path id="DejaVuSans-69" d="M 603 3500 
L 1178 3500 
L 1178 0 
L 603 0 
L 603 3500 
z
M 603 4863 
L 1178 4863 
L 1178 4134 
L 603 4134 
L 603 4863 
z
" transform="scale(0.015625)"/>
       <path id="DejaVuSans-6d" d="M 3328 2828 
Q 3544 3216 3844 3400 
Q 4144 3584 4550 3584 
Q 5097 3584 5394 3201 
Q 5691 2819 5691 2113 
L 5691 0 
L 5113 0 
L 5113 2094 
Q 5113 2597 4934 2840 
Q 4756 3084 4391 3084 
Q 3944 3084 3684 2787 
Q 3425 2491 3425 1978 
L 3425 0 
L 2847 0 
L 2847 2094 
Q 2847 2600 2669 2842 
Q 2491 3084 2119 3084 
Q 1678 3084 1418 2786 
Q 1159 2488 1159 1978 
L 1159 0 
L 581 0 
L 581 3500 
L 1159 3500 
L 1159 2956 
Q 1356 3278 1631 3431 
Q 1906 3584 2284 3584 
Q 2666 3584 2933 3390 
Q 3200 3197 3328 2828 
z
" transform="scale(0.015625)"/>
       <path id="DejaVuSans-65" d="M 3597 1894 
L 3597 1613 
L 953 1613 
Q 991 1019 1311 708 
Q 1631 397 2203 397 
Q 2534 397 2845 478 
Q 3156 559 3463 722 
L 3463 178 
Q 3153 47 2828 -22 
Q 2503 -91 2169 -91 
Q 1331 -91 842 396 
Q 353 884 353 1716 
Q 353 2575 817 3079 
Q 1281 3584 2069 3584 
Q 2775 3584 3186 3129 
Q 3597 2675 3597 1894 
z
M 3022 2063 
Q 3016 2534 2758 2815 
Q 2500 3097 2075 3097 
Q 1594 3097 1305 2825 
Q 1016 2553 972 2059 
L 3022 2063 
z
" transform="scale(0.015625)"/>
       <path id="DejaVuSans-20" transform="scale(0.015625)"/>
       <path id="DejaVuSans-28" d="M 1984 4856 
Q 1566 4138 1362 3434 
Q 1159 2731 1159 2009 
Q 1159 1288 1364 580 
Q 1569 -128 1984 -844 
L 1484 -844 
Q 1016 -109 783 600 
Q 550 1309 550 2009 
Q 550 2706 781 3412 
Q 1013 4119 1484 4856 
L 1984 4856 
z
" transform="scale(0.015625)"/>
       <path id="DejaVuSans-73" d="M 2834 3397 
L 2834 2853 
Q 2591 2978 2328 3040 
Q 2066 3103 1784 3103 
Q 1356 3103 1142 2972 
Q 928 2841 928 2578 
Q 928 2378 1081 2264 
Q 1234 2150 1697 2047 
L 1894 2003 
Q 2506 1872 2764 1633 
Q 3022 1394 3022 966 
Q 3022 478 2636 193 
Q 2250 -91 1575 -91 
Q 1294 -91 989 -36 
Q 684 19 347 128 
L 347 722 
Q 666 556 975 473 
Q 1284 391 1588 391 
Q 1994 391 2212 530 
Q 2431 669 2431 922 
Q 2431 1156 2273 1281 
Q 2116 1406 1581 1522 
L 1381 1569 
Q 847 1681 609 1914 
Q 372 2147 372 2553 
Q 372 3047 722 3315 
Q 1072 3584 1716 3584 
Q 2034 3584 2315 3537 
Q 2597 3491 2834 3397 
z
" transform="scale(0.015625)"/>
       <path id="DejaVuSans-29" d="M 513 4856 
L 1013 4856 
Q 1481 4119 1714 3412 
Q 1947 2706 1947 2009 
Q 1947 1309 1714 600 
Q 1481 -109 1013 -844 
L 513 -844 
Q 928 -128 1133 580 
Q 1338 1288 1338 2009 
Q 1338 2731 1133 3434 
Q 928 4138 513 4856 
z
" transform="scale(0.015625)"/>
      </defs>
      <use xlink:href="#DejaVuSans-54"/>
      <use xlink:href="#DejaVuSans-69" transform="translate(57.958984 0)"/>
      <use xlink:href="#DejaVuSans-6d" transform="translate(85.742188 0)"/>
      <use xlink:href="#DejaVuSans-65" transform="translate(183.154297 0)"/>
      <use xlink:href="#DejaVuSans-20" transform="translate(244.677734 0)"/>
      <use xlink:href="#DejaVuSans-28" transform="translate(276.464844 0)"/>
      <use xlink:href="#DejaVuSans-73" transform="translate(315.478516 0)"/>
      <use xlink:href="#DejaVuSans-29" transform="translate(367.578125 0)"/>
     </g>
    </g>
   </g>
   <g id="matplotlib.axis_2">
    <g id="ytick_1">
     <g id="line2d_7">
      <defs>
       <path id="m7a3cd6464e" d="M 0 0 
L -3.5 0 
" style="stroke: #000000; stroke-width: 0.8"/>
      </defs>
      <g>
       <use xlink:href="#m7a3cd6464e" x="52.388438" y="23.837812" style="stroke: #000000; stroke-width: 0.8"/>
      </g>
     </g>
     <g id="text_8">
      <!-- −4 -->
      <g transform="translate(24.749375 29.156719) scale(0.14 -0.14)">
       <defs>
        <path id="DejaVuSans-2212" d="M 678 2272 
L 4684 2272 
L 4684 1741 
L 678 1741 
L 678 2272 
z
" transform="scale(0.015625)"/>
       </defs>
       <use xlink:href="#DejaVuSans-2212"/>
       <use xlink:href="#DejaVuSans-34" transform="translate(83.789062 0)"/>
      </g>
     </g>
    </g>
    <g id="ytick_2">
     <g id="line2d_8">
      <g>
       <use xlink:href="#m7a3cd6464e" x="52.388438" y="85.108954" style="stroke: #000000; stroke-width: 0.8"/>
      </g>
     </g>
     <g id="text_9">
      <!-- −3 -->
      <g transform="translate(24.749375 90.42786) scale(0.14 -0.14)">
       <use xlink:href="#DejaVuSans-2212"/>
       <use xlink:href="#DejaVuSans-33" transform="translate(83.789062 0)"/>
      </g>
     </g>
    </g>
    <g id="ytick_3">
     <g id="line2d_9">
      <g>
       <use xlink:href="#m7a3cd6464e" x="52.388438" y="146.380096" style="stroke: #000000; stroke-width: 0.8"/>
      </g>
     </g>
     <g id="text_10">
      <!-- −2 -->
      <g transform="translate(24.749375 151.699002) scale(0.14 -0.14)">
       <use xlink:href="#DejaVuSans-2212"/>
       <use xlink:href="#DejaVuSans-32" transform="translate(83.789062 0)"/>
      </g>
     </g>
    </g>
    <g id="ytick_4">
     <g id="line2d_10">
      <g>
       <use xlink:href="#m7a3cd6464e" x="52.388438" y="207.651238" style="stroke: #000000; stroke-width: 0.8"/>
      </g>
     </g>
     <g id="text_11">
      <!-- −1 -->
      <g transform="translate(24.749375 212.970144) scale(0.14 -0.14)">
       <use xlink:href="#DejaVuSans-2212"/>
       <use xlink:href="#DejaVuSans-31" transform="translate(83.789062 0)"/>
      </g>
     </g>
    </g>
    <g id="ytick_5">
     <g id="line2d_11">
      <g>
       <use xlink:href="#m7a3cd6464e" x="52.388438" y="268.922379" style="stroke: #000000; stroke-width: 0.8"/>
      </g>
     </g>
     <g id="text_12">
      <!-- 0 -->
      <g transform="translate(36.480938 274.241286) scale(0.14 -0.14)">
       <use xlink:href="#DejaVuSans-30"/>
      </g>
     </g>
    </g>
    <g id="ytick_6">
     <g id="line2d_12">
      <g>
       <use xlink:href="#m7a3cd6464e" x="52.388438" y="330.193521" style="stroke: #000000; stroke-width: 0.8"/>
      </g>
     </g>
     <g id="text_13">
      <!-- 1 -->
      <g transform="translate(36.480938 335.512427) scale(0.14 -0.14)">
       <use xlink:href="#DejaVuSans-31"/>
      </g>
     </g>
    </g>
    <g id="ytick_7">
     <g id="line2d_13">
      <g>
       <use xlink:href="#m7a3cd6464e" x="52.388438" y="391.464663" style="stroke: #000000; stroke-width: 0.8"/>
      </g>
     </g>
     <g id="text_14">
      <!-- 2 -->
      <g transform="translate(36.480938 396.783569) scale(0.14 -0.14)">
       <use xlink:href="#DejaVuSans-32"/>
      </g>
     </g>
    </g>
    <g id="ytick_8">
     <g id="line2d_14">
      <g>
       <use xlink:href="#m7a3cd6464e" x="52.388438" y="452.735805" style="stroke: #000000; stroke-width: 0.8"/>
      </g>
     </g>
     <g id="text_15">
      <!-- 3 -->
      <g transform="translate(36.480938 458.054711) scale(0.14 -0.14)">
       <use xlink:href="#DejaVuSans-33"/>
      </g>
     </g>
    </g>
    <g id="ytick_9">
     <g id="line2d_15">
      <g>
       <use xlink:href="#m7a3cd6464e" x="52.388438" y="514.006946" style="stroke: #000000; stroke-width: 0.8"/>
      </g>
     </g>
     <g id="text_16">
      <!-- 4 -->
      <g transform="translate(36.480938 519.325853) scale(0.14 -0.14)">
       <use xlink:href="#DejaVuSans-34"/>
      </g>
     </g>
    </g>
    <g id="text_17">
     <!-- Activity (µV) -->
     <g transform="translate(17.837813 312.030348) rotate(-90) scale(0.14 -0.14)">
      <defs>
       <path id="DejaVuSans-41" d="M 2188 4044 
L 1331 1722 
L 3047 1722 
L 2188 4044 
z
M 1831 4666 
L 2547 4666 
L 4325 0 
L 3669 0 
L 3244 1197 
L 1141 1197 
L 716 0 
L 50 0 
L 1831 4666 
z
" transform="scale(0.015625)"/>
       <path id="DejaVuSans-63" d="M 3122 3366 
L 3122 2828 
Q 2878 2963 2633 3030 
Q 2388 3097 2138 3097 
Q 1578 3097 1268 2742 
Q 959 2388 959 1747 
Q 959 1106 1268 751 
Q 1578 397 2138 397 
Q 2388 397 2633 464 
Q 2878 531 3122 666 
L 3122 134 
Q 2881 22 2623 -34 
Q 2366 -91 2075 -91 
Q 1284 -91 818 406 
Q 353 903 353 1747 
Q 353 2603 823 3093 
Q 1294 3584 2113 3584 
Q 2378 3584 2631 3529 
Q 2884 3475 3122 3366 
z
" transform="scale(0.015625)"/>
       <path id="DejaVuSans-74" d="M 1172 4494 
L 1172 3500 
L 2356 3500 
L 2356 3053 
L 1172 3053 
L 1172 1153 
Q 1172 725 1289 603 
Q 1406 481 1766 481 
L 2356 481 
L 2356 0 
L 1766 0 
Q 1100 0 847 248 
Q 594 497 594 1153 
L 594 3053 
L 172 3053 
L 172 3500 
L 594 3500 
L 594 4494 
L 1172 4494 
z
" transform="scale(0.015625)"/>
       <path id="DejaVuSans-76" d="M 191 3500 
L 800 3500 
L 1894 563 
L 2988 3500 
L 3597 3500 
L 2284 0 
L 1503 0 
L 191 3500 
z
" transform="scale(0.015625)"/>
       <path id="DejaVuSans-79" d="M 2059 -325 
Q 1816 -950 1584 -1140 
Q 1353 -1331 966 -1331 
L 506 -1331 
L 506 -850 
L 844 -850 
Q 1081 -850 1212 -737 
Q 1344 -625 1503 -206 
L 1606 56 
L 191 3500 
L 800 3500 
L 1894 763 
L 2988 3500 
L 3597 3500 
L 2059 -325 
z
" transform="scale(0.015625)"/>
       <path id="DejaVuSans-b5" d="M 544 -1331 
L 544 3500 
L 1119 3500 
L 1119 1325 
Q 1119 872 1334 640 
Q 1550 409 1972 409 
Q 2434 409 2667 671 
Q 2900 934 2900 1459 
L 2900 3500 
L 3475 3500 
L 3475 806 
Q 3475 619 3529 530 
Q 3584 441 3700 441 
Q 3728 441 3778 458 
Q 3828 475 3916 513 
L 3916 50 
Q 3788 -22 3673 -56 
Q 3559 -91 3450 -91 
Q 3234 -91 3106 31 
Q 2978 153 2931 403 
Q 2775 156 2548 32 
Q 2322 -91 2016 -91 
Q 1697 -91 1473 31 
Q 1250 153 1119 397 
L 1119 -1331 
L 544 -1331 
z
" transform="scale(0.015625)"/>
       <path id="DejaVuSans-56" d="M 1831 0 
L 50 4666 
L 709 4666 
L 2188 738 
L 3669 4666 
L 4325 4666 
L 2547 0 
L 1831 0 
z
" transform="scale(0.015625)"/>
      </defs>
      <use xlink:href="#DejaVuSans-41"/>
      <use xlink:href="#DejaVuSans-63" transform="translate(66.658203 0)"/>
      <use xlink:href="#DejaVuSans-74" transform="translate(121.638672 0)"/>
      <use xlink:href="#DejaVuSans-69" transform="translate(160.847656 0)"/>
      <use xlink:href="#DejaVuSans-76" transform="translate(188.630859 0)"/>
      <use xlink:href="#DejaVuSans-69" transform="translate(247.810547 0)"/>
      <use xlink:href="#DejaVuSans-74" transform="translate(275.59375 0)"/>
      <use xlink:href="#DejaVuSans-79" transform="translate(314.802734 0)"/>
      <use xlink:href="#DejaVuSans-20" transform="translate(373.982422 0)"/>
      <use xlink:href="#DejaVuSans-28" transform="translate(405.769531 0)"/>
      <use xlink:href="#DejaVuSans-b5" transform="translate(444.783203 0)"/>
      <use xlink:href="#DejaVuSans-56" transform="translate(508.40625 0)"/>
      <use xlink:href="#DejaVuSans-29" transform="translate(576.814453 0)"/>
     </g>
    </g>
   </g>
   <g id="line2d_16">
    <path d="M 52.388438 268.922379 
L 824.642138 268.922379 
" clip-path="url(#pfe7102b43a)" style="fill: none; stroke-dasharray: 1.85,0.8; stroke-dashoffset: 0; stroke: #000000; stroke-width: 0.5"/>
   </g>
   <g id="line2d_17">
    <path d="M 52.388438 514.006946 
L 52.388438 23.837812 
" clip-path="url(#pfe7102b43a)" style="fill: none; stroke-dasharray: 1.85,0.8; stroke-dashoffset: 0; stroke: #000000; stroke-width: 0.5"/>
   </g>
   <g id="line2d_18">
    <path d="M 52.388433 322.358353 
L 58.566463 316.771639 
L 64.744492 312.976393 
L 70.922522 311.592656 
L 77.100551 313.403085 
L 83.278581 318.27998 
L 89.456611 324.570552 
L 95.63464 329.484813 
L 101.81267 330.410564 
L 107.990699 326.763412 
L 114.168729 321.166832 
L 120.346759 318.0629 
L 126.524788 320.966976 
L 132.702818 330.153943 
L 138.880847 342.342313 
L 145.058877 352.802096 
L 151.236907 358.894327 
L 157.414936 361.728604 
L 163.592966 364.272842 
L 169.770995 367.53352 
L 175.949025 369.295729 
L 182.127055 366.778153 
L 188.305084 359.813543 
L 194.483114 351.12434 
L 200.661143 344.630176 
L 206.839173 343.265731 
L 213.017203 347.384059 
L 219.195232 354.080922 
L 225.373262 358.678156 
L 231.551291 357.445413 
L 237.729321 349.65581 
L 243.907351 337.503707 
L 250.08538 324.977518 
L 256.26341 316.344242 
L 262.44144 314.07861 
L 268.619469 317.663486 
L 274.797499 325.399976 
L 280.975528 336.507034 
L 287.153558 350.74757 
L 293.331588 366.430653 
L 299.509617 380.192023 
L 305.687647 389.525871 
L 311.865676 395.089675 
L 318.043706 399.176169 
L 324.221736 402.75029 
L 330.399765 403.821546 
L 336.577795 398.678597 
L 342.755824 385.325732 
L 348.933854 365.066306 
L 355.111884 340.880489 
L 361.289913 315.510543 
L 367.467943 290.963834 
L 373.645972 270.12394 
L 379.824002 256.877759 
L 386.002032 253.407191 
L 392.180061 257.998758 
L 398.358091 266.67139 
L 404.53612 276.758623 
L 410.71415 287.994211 
L 416.89218 300.011155 
L 423.070209 310.502795 
L 429.248239 315.855679 
L 435.426268 313.674157 
L 441.604298 305.326395 
L 447.782328 295.413957 
L 453.960357 287.735677 
L 460.138387 283.011813 
L 466.316417 280.155088 
L 472.494446 278.197468 
L 478.672476 276.513368 
L 484.850505 274.516526 
L 491.028535 272.325297 
L 497.206565 271.629548 
L 503.384594 273.905188 
L 509.562624 277.998545 
L 515.740653 279.889235 
L 521.918683 275.433097 
L 528.096713 263.928946 
L 534.274742 249.013453 
L 540.452772 235.7786 
L 546.630801 227.628291 
L 552.808831 224.815086 
L 558.986861 225.466212 
L 565.16489 227.113716 
L 571.34292 227.591531 
L 577.520949 226.085743 
L 583.698979 224.376591 
L 589.877009 225.61837 
L 596.055038 231.014608 
L 602.233068 237.750745 
L 608.411097 241.389905 
L 614.589127 240.52811 
L 620.767157 238.197012 
L 626.945186 238.272981 
L 633.123216 242.175035 
L 639.301245 249.077922 
L 645.479275 258.487298 
L 651.657305 270.795342 
L 657.835334 284.137518 
L 664.013364 292.098528 
L 670.191394 288.145329 
L 676.369423 273.169265 
L 682.547453 257.102318 
L 688.725482 251.200414 
L 694.903512 259.502927 
L 701.081542 277.365226 
L 707.259571 296.891527 
L 713.437601 312.518202 
L 719.61563 322.3274 
L 725.79366 325.727185 
L 731.97169 322.550482 
L 738.149719 314.235204 
L 744.327749 304.021472 
L 750.505778 294.876556 
L 756.683808 287.498023 
L 762.861838 280.605767 
L 769.039867 273.061721 
L 775.217897 264.850919 
L 781.395926 256.541369 
L 787.573956 249.161868 
L 793.751986 245.216896 
L 799.930015 247.457902 
L 806.108045 255.764694 
L 812.286074 265.541399 
L 818.464104 270.727987 
L 824.642134 268.835119 
" clip-path="url(#pfe7102b43a)" style="fill: none; stroke: #0000ff; stroke-width: 2; stroke-linecap: square"/>
   </g>
   <g id="line2d_19">
    <path d="M 52.388433 321.067601 
L 58.566463 319.80927 
L 64.744492 322.572153 
L 70.922522 329.001539 
L 77.100551 335.106004 
L 83.278581 335.915958 
L 89.456611 330.111029 
L 95.63464 323.588803 
L 101.81267 326.052211 
L 107.990699 342.382048 
L 114.168729 367.048259 
L 120.346759 387.118878 
L 126.524788 392.009682 
L 132.702818 381.81077 
L 138.880847 366.948171 
L 145.058877 359.302464 
L 151.236907 361.945635 
L 157.414936 367.540344 
L 163.592966 368.778909 
L 169.770995 367.127929 
L 175.949025 369.954145 
L 182.127055 381.777883 
L 188.305084 399.612451 
L 194.483114 416.11468 
L 200.661143 425.748404 
L 206.839173 426.409082 
L 213.017203 417.872007 
L 219.195232 402.794378 
L 225.373262 387.491577 
L 231.551291 378.416282 
L 237.729321 378.119243 
L 243.907351 384.591915 
L 250.08538 393.622271 
L 256.26341 401.6934 
L 262.44144 408.252441 
L 268.619469 415.641343 
L 274.797499 425.642114 
L 280.975528 435.40661 
L 287.153558 438.487539 
L 293.331588 431.474513 
L 299.509617 418.452834 
L 305.687647 407.66864 
L 311.865676 403.89735 
L 318.043706 404.909001 
L 324.221736 406.113974 
L 330.399765 405.913306 
L 336.577795 405.020918 
L 342.755824 402.219259 
L 348.933854 393.126997 
L 355.111884 373.971702 
L 361.289913 345.163874 
L 367.467943 311.366991 
L 373.645972 280.177934 
L 379.824002 259.282214 
L 386.002032 252.160834 
L 392.180061 255.89213 
L 398.358091 263.509538 
L 404.53612 269.319045 
L 410.71415 272.251261 
L 416.89218 273.161902 
L 423.070209 270.19616 
L 429.248239 259.413295 
L 435.426268 239.999737 
L 441.604298 217.45989 
L 447.782328 201.705285 
L 453.960357 200.415585 
L 460.138387 212.647682 
L 466.316417 229.028044 
L 472.494446 239.855028 
L 478.672476 243.253865 
L 484.850505 244.903428 
L 491.028535 250.448273 
L 497.206565 258.485289 
L 503.384594 261.763128 
L 509.562624 255.526278 
L 515.740653 242.847996 
L 521.918683 230.723006 
L 528.096713 222.749897 
L 534.274742 217.415289 
L 540.452772 212.361857 
L 546.630801 207.112762 
L 552.808831 200.667658 
L 558.986861 190.913707 
L 565.16489 177.549056 
L 571.34292 163.592264 
L 577.520949 153.067825 
L 583.698979 148.119683 
L 589.877009 148.981033 
L 596.055038 155.292905 
L 602.233068 166.149626 
L 608.411097 179.470603 
L 614.589127 193.112157 
L 620.767157 206.700281 
L 626.945186 221.924378 
L 633.123216 241.226853 
L 639.301245 265.289415 
L 645.479275 290.809422 
L 651.657305 310.781497 
L 657.835334 317.752409 
L 664.013364 308.36345 
L 670.191394 286.741475 
L 676.369423 262.562566 
L 682.547453 243.8898 
L 688.725482 232.734734 
L 694.903512 227.137776 
L 701.081542 224.724393 
L 707.259571 224.78754 
L 713.437601 228.371607 
L 719.61563 236.216136 
L 725.79366 246.162724 
L 731.97169 253.094531 
L 738.149719 252.913926 
L 744.327749 246.557099 
L 750.505778 238.962662 
L 756.683808 235.412669 
L 762.861838 238.914244 
L 769.039867 248.823248 
L 775.217897 261.176636 
L 781.395926 271.659956 
L 787.573956 277.999052 
L 793.751986 279.708807 
L 799.930015 276.034155 
L 806.108045 264.420495 
L 812.286074 242.312943 
L 818.464104 211.514183 
L 824.642134 178.020436 
" clip-path="url(#pfe7102b43a)" style="fill: none; stroke: #ff0000; stroke-width: 2; stroke-linecap: square"/>
   </g>
   <g id="patch_3">
    <path d="M 52.388438 514.006946 
L 52.388438 23.837812 
" style="fill: none; stroke: #000000; stroke-linejoin: miter; stroke-linecap: square"/>
   </g>
   <g id="patch_4">
    <path d="M 824.642138 514.006946 
L 824.642138 23.837812 
" style="fill: none; stroke: #000000; stroke-linejoin: miter; stroke-linecap: square"/>
   </g>
   <g id="patch_5">
    <path d="M 52.388438 514.006946 
L 824.642138 514.006946 
" style="fill: none; stroke: #000000; stroke-linejoin: miter; stroke-linecap: square"/>
   </g>
   <g id="patch_6">
    <path d="M 52.388438 23.837812 
L 824.642138 23.837812 
" style="fill: none; stroke: #000000; stroke-linejoin: miter; stroke-linecap: square"/>
   </g>
   <g id="text_18">
    <!-- cc2fb1_cc2fb2 -->
    <g transform="translate(387.988413 17.837812) scale(0.14 -0.14)">
     <defs>
      <path id="DejaVuSans-66" d="M 2375 4863 
L 2375 4384 
L 1825 4384 
Q 1516 4384 1395 4259 
Q 1275 4134 1275 3809 
L 1275 3500 
L 2222 3500 
L 2222 3053 
L 1275 3053 
L 1275 0 
L 697 0 
L 697 3053 
L 147 3053 
L 147 3500 
L 697 3500 
L 697 3744 
Q 697 4328 969 4595 
Q 1241 4863 1831 4863 
L 2375 4863 
z
" transform="scale(0.015625)"/>
      <path id="DejaVuSans-62" d="M 3116 1747 
Q 3116 2381 2855 2742 
Q 2594 3103 2138 3103 
Q 1681 3103 1420 2742 
Q 1159 2381 1159 1747 
Q 1159 1113 1420 752 
Q 1681 391 2138 391 
Q 2594 391 2855 752 
Q 3116 1113 3116 1747 
z
M 1159 2969 
Q 1341 3281 1617 3432 
Q 1894 3584 2278 3584 
Q 2916 3584 3314 3078 
Q 3713 2572 3713 1747 
Q 3713 922 3314 415 
Q 2916 -91 2278 -91 
Q 1894 -91 1617 61 
Q 1341 213 1159 525 
L 1159 0 
L 581 0 
L 581 4863 
L 1159 4863 
L 1159 2969 
z
" transform="scale(0.015625)"/>
      <path id="DejaVuSans-5f" d="M 3263 -1063 
L 3263 -1509 
L -63 -1509 
L -63 -1063 
L 3263 -1063 
z
" transform="scale(0.015625)"/>
     </defs>
     <use xlink:href="#DejaVuSans-63"/>
     <use xlink:href="#DejaVuSans-63" transform="translate(54.980469 0)"/>
     <use xlink:href="#DejaVuSans-32" transform="translate(109.960938 0)"/>
     <use xlink:href="#DejaVuSans-66" transform="translate(173.583984 0)"/>
     <use xlink:href="#DejaVuSans-62" transform="translate(208.789062 0)"/>
     <use xlink:href="#DejaVuSans-31" transform="translate(272.265625 0)"/>
     <use xlink:href="#DejaVuSans-5f" transform="translate(335.888672 0)"/>
     <use xlink:href="#DejaVuSans-63" transform="translate(385.888672 0)"/>
     <use xlink:href="#DejaVuSans-63" transform="translate(440.869141 0)"/>
     <use xlink:href="#DejaVuSans-32" transform="translate(495.849609 0)"/>
     <use xlink:href="#DejaVuSans-66" transform="translate(559.472656 0)"/>
     <use xlink:href="#DejaVuSans-62" transform="translate(594.677734 0)"/>
     <use xlink:href="#DejaVuSans-32" transform="translate(658.154297 0)"/>
    </g>
   </g>
   <g id="legend_1">
    <g id="patch_7">
     <path d="M 62.188437 76.136562 
L 154.015312 76.136562 
Q 156.815313 76.136562 156.815313 73.336562 
L 156.815313 33.637812 
Q 156.815313 30.837812 154.015312 30.837812 
L 62.188437 30.837812 
Q 59.388438 30.837812 59.388438 33.637812 
L 59.388438 73.336562 
Q 59.388438 76.136562 62.188437 76.136562 
z
" style="fill: #ffffff; opacity: 0.8; stroke: #cccccc; stroke-linejoin: miter"/>
    </g>
    <g id="line2d_20">
     <path d="M 64.988438 42.175625 
L 78.988438 42.175625 
L 92.988438 42.175625 
" style="fill: none; stroke: #0000ff; stroke-width: 2; stroke-linecap: square"/>
    </g>
    <g id="text_19">
     <!-- cc2fb1 -->
     <g transform="translate(104.188438 47.075625) scale(0.14 -0.14)">
      <use xlink:href="#DejaVuSans-63"/>
      <use xlink:href="#DejaVuSans-63" transform="translate(54.980469 0)"/>
      <use xlink:href="#DejaVuSans-32" transform="translate(109.960938 0)"/>
      <use xlink:href="#DejaVuSans-66" transform="translate(173.583984 0)"/>
      <use xlink:href="#DejaVuSans-62" transform="translate(208.789062 0)"/>
      <use xlink:href="#DejaVuSans-31" transform="translate(272.265625 0)"/>
     </g>
    </g>
    <g id="line2d_21">
     <path d="M 64.988438 62.725 
L 78.988438 62.725 
L 92.988438 62.725 
" style="fill: none; stroke: #ff0000; stroke-width: 2; stroke-linecap: square"/>
    </g>
    <g id="text_20">
     <!-- cc2fb2 -->
     <g transform="translate(104.188438 67.625) scale(0.14 -0.14)">
      <use xlink:href="#DejaVuSans-63"/>
      <use xlink:href="#DejaVuSans-63" transform="translate(54.980469 0)"/>
      <use xlink:href="#DejaVuSans-32" transform="translate(109.960938 0)"/>
      <use xlink:href="#DejaVuSans-66" transform="translate(173.583984 0)"/>
      <use xlink:href="#DejaVuSans-62" transform="translate(208.789062 0)"/>
      <use xlink:href="#DejaVuSans-32" transform="translate(272.265625 0)"/>
     </g>
    </g>
   </g>
  </g>
 </g>
 <defs>
  <clipPath id="pfe7102b43a">
   <rect x="52.388438" y="23.837812" width="772.253701" height="490.169134"/>
  </clipPath>
 </defs>
</svg>
